<svg width="1064" height="791" viewBox="0 0 1064 791" fill="none" xmlns="http://www.w3.org/2000/svg">
<g clip-path="url(#clip0)">
<rect width="1064" height="791" fill="white"/>
<path d="M558.304 723.445C737.473 723.445 882.719 571.96 882.719 385.094C882.719 198.227 737.473 46.7417 558.304 46.7417C379.135 46.7417 233.89 198.227 233.89 385.094C233.89 571.96 379.135 723.445 558.304 723.445Z" fill="#EC8C92"/>
<path d="M276.12 313.139L274.427 312.834C274.513 312.314 283.433 260.446 317.92 220.668L319.192 221.869C285.04 261.261 276.206 312.628 276.12 313.139Z" fill="white"/>
<path d="M323.128 187.792L321.71 186.788C321.985 186.367 349.588 144.608 393.872 124.236L394.568 125.876C350.748 146.034 323.403 187.38 323.128 187.792Z" fill="white"/>
<path d="M863.778 378.954H862.059C862.059 314.627 834.069 256.323 833.785 255.74L835.315 254.933C835.599 255.516 863.778 314.188 863.778 378.954Z" fill="white"/>
<path d="M830.314 345.415C828.99 319.79 820.989 298.225 820.912 298.01L822.51 297.355C822.588 297.57 830.683 319.395 832.032 345.316L830.314 345.415Z" fill="white"/>
<path d="M222.203 300.949L220.518 300.573C220.621 300.053 231.475 248.453 269.511 196.307L270.878 197.391C233.074 249.224 222.306 300.438 222.203 300.949Z" fill="black"/>
<path d="M275.931 156.744L274.616 155.597C274.719 155.472 284.8 142.941 297.656 130.286L298.833 131.585C286.046 144.169 276.025 156.619 275.931 156.744Z" fill="black"/>
<path d="M318.436 131.522L317.129 130.357C317.276 130.178 332.005 112.431 360.115 92.4259C386.043 73.9711 428.994 49.7532 486.409 39.1321L486.71 40.8978C429.596 51.4651 386.868 75.5576 361.086 93.9047C333.157 113.776 318.573 131.343 318.436 131.522Z" fill="black"/>
<path d="M881.893 269.776C867.43 208.29 821.54 155.211 821.076 154.683L822.347 153.473C822.811 154.001 868.994 207.43 883.56 269.346L881.893 269.776Z" fill="black"/>
<path d="M894.638 359.289C892.928 336.927 888.837 317.352 885.709 304.866L887.376 304.409C890.522 316.966 894.638 336.649 896.357 359.146L894.638 359.289Z" fill="black"/>
<path d="M903.962 443.81L902.286 443.407C903.765 436.738 905.054 429.505 906.119 421.914L907.821 422.173C906.747 429.81 905.44 437.088 903.962 443.81Z" fill="black"/>
<path d="M911 388.625L909.282 388.527C910.631 362.713 909.436 337.823 906.3 326.593L907.95 326.091C911.138 337.5 912.358 362.633 911 388.625Z" fill="black"/>
<path d="M883.956 470.286L882.323 469.74C885.339 459.952 887.9 446.328 889.937 429.272L891.639 429.496C889.593 446.66 887.007 460.382 883.956 470.286Z" fill="black"/>
<path d="M893.186 414.519L891.475 414.358C892.103 407.259 892.378 402.545 892.378 402.491L894.096 402.598C894.088 402.643 893.813 407.402 893.186 414.519Z" fill="black"/>
<path d="M719.162 76.7408C674.122 46.8404 598.686 36.5688 597.93 36.4702L598.145 34.6956C598.334 34.7224 617.438 37.2859 641.887 43.533C664.472 49.3052 696.363 59.4871 720.09 75.235L719.162 76.7408Z" fill="black"/>
<path d="M681.59 44.5548C669.507 38.9978 641.432 32.3921 641.148 32.3293L641.526 30.5815C641.81 30.6443 670.049 37.2858 682.286 42.9236L681.59 44.5548Z" fill="black"/>
<path d="M315.961 643.747C312.317 640.744 308.716 637.598 305.261 634.407L306.404 633.063C309.842 636.236 313.417 639.364 317.035 642.34L315.961 643.747Z" fill="black"/>
<path d="M286.922 615.603C237.672 559.584 228.236 498.457 228.141 497.847L229.843 497.579C229.929 498.188 239.304 558.796 288.186 614.393L286.922 615.603Z" fill="black"/>
<path d="M300.423 610.969C282.789 595.804 266.306 561.198 266.143 560.848L267.681 560.06C267.844 560.4 284.172 594.666 301.514 609.589L300.423 610.969Z" fill="black"/>
<path d="M471.232 726.054C446.164 721.052 421.397 712.161 397.618 699.622L398.392 698.018C422.033 710.476 446.646 719.314 471.559 724.288L471.232 726.054Z" fill="black"/>
<path d="M367.248 681.149C354.925 672.545 348.024 666.163 347.955 666.1L349.098 664.765C349.167 664.828 355.99 671.138 368.202 679.661L367.248 681.149Z" fill="black"/>
<path d="M573.868 744.885L573.782 743.092C580.141 742.77 586.363 742.268 592.267 741.604L592.456 743.388C586.518 744.06 580.261 744.562 573.868 744.885Z" fill="black"/>
<path d="M551.275 745.297C511.932 744.849 478.967 738.7 478.632 738.638L478.941 736.872C479.268 736.935 512.104 743.065 551.292 743.505L551.275 745.297Z" fill="black"/>
<path d="M363.243 627.703C309.034 588.06 289.062 525.176 288.864 524.548L290.497 523.993C290.695 524.62 310.504 586.949 364.232 626.233L363.243 627.703Z" fill="white"/>
<path d="M481.768 696.297C439.221 688.499 396.622 658.796 396.2 658.491L397.163 657.003C397.584 657.299 439.891 686.796 482.069 694.522L481.768 696.297Z" fill="white"/>
<path d="M411.772 642.42C400.446 638.719 386.773 625.498 386.197 624.942L387.366 623.634C387.503 623.768 401.331 637.132 412.279 640.717L411.772 642.42Z" fill="white"/>
<path d="M598.571 81.7629C589.934 87.2482 552.371 110.175 525.257 131.74C520.943 135.173 517.729 139.879 516.036 145.257C512.522 156.451 509.368 168.883 508.474 172.486C508.268 173.32 508.371 174.207 508.783 174.951C511.318 179.612 525.214 195.655 600.925 223.584L618.697 183.493C618.697 183.493 607.474 108.894 604.028 83.9767C603.675 81.4761 600.917 80.275 598.571 81.7629Z" fill="white"/>
<path d="M769.569 530.126L676.37 541.545C661.254 543.4 648.036 553.054 641.204 567.242L599.49 654.658C597.711 658.35 593.758 660.313 589.891 659.426L575.067 656.02C564.668 653.627 554.279 660.062 551.314 670.728L548.993 679.091C547.704 683.725 549.732 688.654 553.84 690.877L622.272 727.867C626.81 730.314 632.387 728.674 635.025 724.112L703.801 607.297L798.857 601.05L769.569 530.126Z" fill="#274D76"/>
<path d="M716.821 455.483L723.618 437.7L779.847 440.846L759.42 521.361L716.821 455.483Z" fill="#274D76"/>
<path d="M709.722 412.505C709.722 412.505 715.901 395.825 715.807 386.764C715.686 374.708 716.941 350.177 709.576 351.333C705.09 352.032 703.75 363.379 703.2 368.255C702.985 370.182 702.272 372.029 701.034 373.481C699.272 375.551 696.772 376.349 695.457 366.964C693.317 351.674 693.781 322.248 685.265 327.635C680.95 330.369 683.262 357.087 680.822 355.904C678.381 354.721 678.682 314.37 668.301 318.771C664.872 320.223 665.645 339.502 666.35 350.284C666.393 350.885 665.55 351.01 665.422 350.419C664.021 343.903 661.872 334.411 660.154 328.845C658.306 322.849 654.009 325.986 654.009 330.36C654.009 339.771 655.539 359.588 655.539 359.588L709.722 412.505Z" fill="#274D76"/>
<path d="M854.054 466.041L869.523 493.826L833.429 614.826C830.043 627.096 816.586 634.751 804.503 632.653L758.045 627.276C752.081 626.236 749.941 629.427 752.029 635.342L772.079 731.291C775.482 740.944 770.205 751.556 760.675 754.218L691.546 773.489C684.852 775.353 678.166 770.477 677.556 763.28L673.577 738.515C673.414 736.624 672.898 729.032 677.014 725.967C683.03 721.485 692.483 715.211 692.483 715.211C695.672 713.428 695.998 708.095 695.061 704.456L668.799 597.94C664.511 581.278 674.453 568.362 690.773 565.53C711.398 561.945 745.773 553.878 745.773 553.878L760.494 453.717C762.428 445.767 769.466 440.326 777.329 440.721L799.914 441.841L854.054 466.041Z" fill="#FFF3A1"/>
<path d="M845.181 439.709C849.876 418.97 837.563 398.188 817.678 393.291C797.793 388.394 777.867 401.236 773.172 421.975C768.476 442.714 780.79 463.496 800.675 468.394C820.559 473.291 840.485 460.448 845.181 439.709Z" fill="#FFF3A1"/>
<path d="M473.205 430.315L596.147 314.316C602.498 308.32 611.788 308.795 619.307 313.07C634.51 321.719 660.583 337.18 683.838 363.46C703.363 385.527 735.804 420.563 739.637 450.221C740.075 453.618 738.941 457.024 736.664 459.489C699.178 499.993 622.925 574.591 614.4 582.174C594.222 600.127 541.895 559.596 512.083 523.458C499.631 508.373 457.625 445.641 473.205 430.315Z" fill="white"/>
<path d="M873.734 473.14C862.321 461.425 842.814 462.124 830.782 472.88L788.132 513.392C785.794 515.418 782.331 515.104 780.363 512.693L750.147 475.855C745.283 469.913 742.344 462.527 741.743 454.748L740.651 440.703C740.574 439.753 740.359 438.82 739.998 437.942L734.489 423.153C733.733 421.119 731.104 420.868 729.961 422.696C728.414 425.179 727.571 428.916 727.571 432.627C727.571 439.797 729.187 447.541 726.609 447.541C723.172 447.541 719.089 440.496 717.345 433.882C715.343 426.272 714.346 420.204 710.814 416.834C709.215 415.311 706.371 416.314 705.932 418.851C704.91 424.695 706.087 435.701 706.182 441.948C706.207 443.741 704.669 443.705 704.196 441.527C702.744 434.778 698.782 414.154 698.782 414.154C698.155 411.439 694.563 411.125 693.523 413.706C690.55 421.119 691.658 437.243 692.2 443.239C692.251 443.768 691.564 443.983 691.332 443.517C689.896 440.721 687.361 435.217 685.548 428.208C685.144 426.649 683.099 426.308 682.343 427.715C680.065 431.991 681.225 442.199 681.836 446.394C681.896 446.788 681.38 446.968 681.191 446.627C680.203 444.817 679.446 443.105 678.682 441.061C677.693 438.417 675.571 439.932 675.39 441.608C674.789 447.264 674.479 455.348 676.782 465.709C677.616 469.447 680.632 480.66 694.15 497.519L766.338 580.874C779.229 597.904 795.746 593.414 805.01 586.252C828.213 568.326 871.044 524.166 871.044 524.166C887.338 509.825 883.926 483.599 873.734 473.14Z" fill="#FFF3A1"/>
<path d="M550.918 499.482C507.778 451.387 485.288 437.521 474.305 436.239C471.873 435.953 469.768 437.933 469.785 440.488C469.914 463.917 501.556 510.713 512.075 523.476C536.086 552.596 574.732 584.567 599.396 586.494C601.286 586.638 602.816 584.926 602.601 582.972C601.106 569.223 590.69 543.822 550.918 499.482Z" fill="#F2BDBA"/>
<path d="M509.153 175.605C512.565 184.174 551.769 210.534 600.908 223.593L602.369 220.303C583.3 202.87 550.334 185.375 525.859 178.787C516.887 176.376 511.997 175.256 509.153 175.605Z" fill="#F2BDBA"/>
<path d="M603.254 99.0346C598.751 95.1178 593.397 92.5185 587.356 91.3085L587.682 89.5518C594.016 90.8245 599.619 93.5493 604.354 97.6543L603.254 99.0346Z" fill="black"/>
<path d="M668.962 396.336L650.769 380.445C647.916 377.953 644.212 376.797 640.517 377.263C625.779 379.109 587.244 384.514 574.328 391.917C569.541 394.66 559.177 406.635 559.177 406.635C555.422 410.695 555.404 417.121 559.143 421.208L582.793 448.465C584.434 450.356 587.201 450.571 589.092 448.958L607.998 432.806C610.043 431.059 610.25 427.868 608.445 425.842L604.638 421.594C603.117 420.106 603.822 417.444 605.867 416.987L667.347 403.22C670.406 402.512 671.377 398.442 668.962 396.336ZM640.629 424.13C637.672 421.943 633.994 421.755 631.21 424.157L574.096 473.355C570.658 476.313 570.443 483.51 573.357 487.032C575.617 489.766 580.172 495.216 582.38 498.012C586.462 503.184 593.165 503.345 596.457 500.217L611.874 485.562C613.275 484.236 615.44 484.325 616.729 485.769L619.995 489.425C622.307 491.953 626.122 492.078 628.58 489.712L645.604 473.31C648.827 470.2 648.853 464.894 645.647 461.757L644.075 460.215C642.605 458.781 642.622 456.334 644.109 454.927L651.947 447.479C654.868 444.7 655.908 438.471 652.221 434.841C652.23 434.841 644.453 426.972 640.629 424.13Z" fill="#93B4F6"/>
<path d="M516.122 180.4C526.959 189.301 555.284 205.488 590.269 217.328L591.421 214.809C576.966 202.001 544.043 186.092 516.827 178.903C515.976 178.679 515.426 179.836 516.122 180.4Z" fill="black"/>
<path d="M477.141 445.552C482.057 439.063 525.49 481.323 540.211 496.981C565.407 523.772 602 575.622 593.183 578.042C587.691 579.548 553.72 559.704 517.858 517.426C490.573 485.249 474.107 449.558 477.141 445.552Z" fill="black"/>
<path d="M767.326 71.6169L766.054 63.5682C764.997 56.8728 758.647 53.5924 752.511 55.869C744.467 58.8447 734.034 62.3761 728.379 66.9652C726.136 68.7846 724.916 71.6528 725.148 74.6016C727.219 100.8 729.591 121.218 730.717 130.235C731.112 133.434 730.098 136.652 727.95 138.974L702.856 166.194L728.302 179.764L775.937 133.47L767.326 71.6169Z" fill="#274D76"/>
<path d="M600.917 223.593L619.118 182.533C622.272 175.426 628.924 170.72 636.418 170.281L674.136 168.103C683.417 167.565 692.449 164.769 700.51 159.938C707.11 155.985 715.231 156.021 721.797 160.045C726.111 162.69 731.559 162.197 735.375 158.818L748.996 146.753C750.56 145.364 751.402 143.294 751.273 141.16C750.551 129.742 748.257 92.3482 747.965 74.1175C747.922 71.581 749.288 69.2417 751.471 68.1303C760.537 63.5143 774.734 61.2646 785.614 63.2006C788.304 63.6757 790.409 65.9791 790.581 68.8204C791.311 81.261 783.165 94.5889 783.165 94.5889L790.34 150.849C791.922 163.254 786.843 175.56 777.123 182.892L731.808 217.059C728.371 219.649 724.796 222.051 721.1 224.229C712.326 229.419 702.942 233.398 693.188 236.06L658.461 245.534L600.917 223.593Z" fill="#FFF3A1"/>
<path d="M616.532 186.701L637.629 183.367L654.026 201.535L622.247 233.076L605.437 213.268L616.532 186.701Z" fill="#274D76"/>
<path d="M668.144 176.417C672.273 159.942 662.815 143.095 647.019 138.789C631.223 134.482 615.07 144.347 610.941 160.822C606.812 177.297 616.27 194.143 632.066 198.45C647.863 202.756 664.015 192.892 668.144 176.417Z" fill="#FFF3A1"/>
<path d="M563.852 157.312L569.447 148.304C570.392 146.78 569.816 144.737 568.226 143.993L565.889 142.899C564.479 142.236 564.299 140.228 565.571 139.305L590.553 121.245C591.816 120.331 591.532 118.305 590.072 117.794L578.633 113.859C577.275 113.393 575.797 113.599 574.603 114.424L550.007 131.409C548.495 132.449 547.275 133.883 546.45 135.559L542.995 142.586C541.25 146.135 542.746 150.482 546.252 152.06L560.337 158.414C561.618 158.997 563.104 158.522 563.852 157.312ZM593.389 153.332L592.117 152.508C590.982 151.773 590.553 150.276 591.103 149.012L592.787 145.158C593.775 142.899 592.933 140.228 590.854 139.018L585.207 135.738C582.99 134.456 580.197 135.29 578.986 137.611L561.927 170.039C560.793 172.199 561.42 174.906 563.379 176.286L569.421 180.526C571.647 182.085 574.68 181.315 575.978 178.868L580.868 169.573C581.598 168.193 583.282 167.727 584.572 168.542L585.242 168.973C586.711 169.914 588.636 169.34 589.41 167.736L594.454 157.339C595.159 155.914 594.686 154.175 593.389 153.332Z" fill="#93B4F6"/>
<path d="M690.077 184.075C681.81 176.376 669.203 176.833 661.46 185.097L638.446 209.673C636.65 211.592 634.003 212.353 631.519 211.672L597.307 202.306C594.944 201.661 592.804 200.334 591.129 198.479L581.306 187.616C580.489 186.71 579.02 186.872 578.496 187.983C577.954 189.121 577.619 190.986 578.178 194.006C579.415 200.728 575.677 200.71 571.879 197.538C569.919 195.906 566.886 193.361 564.411 191.273C562.529 189.686 559.753 191.102 559.744 193.621C559.727 196.686 560.148 200.2 561.841 202.162C558.386 212.972 564.187 225.807 573.374 230.987C583.979 236.966 641.136 255.385 641.136 255.385C646.687 257.096 652.694 255.492 656.776 251.217L690.953 215.419C699.341 206.653 698.937 192.33 690.077 184.075Z" fill="#FFF3A1"/>
<path d="M621.671 148.187C618.01 150.957 615.157 154.945 613.464 159.696C609.648 170.407 613.249 181.915 621.293 188.79C625.624 192.491 632.232 193.37 638.798 189.139C643.069 186.388 646.3 181.96 648.174 176.708C651.457 167.503 649.24 157.957 643.379 151.118C638.566 145.516 627.772 143.562 621.671 148.187Z" fill="black"/>
<path d="M407.661 495.368C404.378 482.318 400.725 465.503 398.8 459.794C398.723 459.57 398.457 458.951 398.259 458.817C396.532 457.616 386.391 452.552 374.652 454.595C371.017 455.232 358.539 454.022 353.546 457.974C351.999 459.193 351.414 461.255 351.277 463.271C350.572 474.144 348.836 507.737 349.129 519.075C349.18 521.109 350.521 522.938 352.437 523.341C373.586 527.832 398.182 525.761 409.139 517.13C410.35 516.171 411.029 514.656 410.892 513.07C410.617 510.031 409.861 504.107 407.661 495.368Z" fill="white"/>
<path d="M286.815 408.311L251.873 396.919C250.06 396.327 248.925 394.445 249.192 392.482L254.589 353.108C254.967 350.329 253.119 347.757 250.455 347.353L228.627 343.876C227.604 343.723 225.404 344.521 225.404 347.587C225.404 349.083 225.8 349.917 226.53 350.831L230.475 355.788C231.214 356.711 231.532 357.93 231.343 359.113L226.676 389.228L242.652 424.713L281.47 429.042L286.815 408.311Z" fill="#274D76"/>
<path d="M217.782 357.509L248.152 407.334C248.968 408.678 250.275 409.628 251.761 409.978L258.568 411.555C260.828 412.075 263.191 411.663 265.159 410.408L267.789 408.732C273.005 405.398 279.356 404.618 285.174 406.599L326.836 420.769L314.659 460.377L273.581 449.926C270.014 449.02 266.508 447.909 263.062 446.591C257.94 444.638 250.447 441.653 245.883 439.314C234.118 433.281 230.26 428.585 228.343 424.838C222.25 412.927 207.194 385.93 205.295 382.739C202.829 378.598 197.406 378.24 194.527 377.46C192.748 376.976 191.442 376.16 190.72 374.395L190.35 373.498C189.912 372.432 190.256 371.195 191.167 370.532L211.122 355.994C213.339 354.381 216.407 355.071 217.782 357.509Z" fill="#FFF3A1"/>
<path d="M345.416 447.882L382.18 447.855C385.179 447.837 388.273 448.769 389.854 450.661C390.8 451.79 392.484 454.228 393.378 455.402C393.997 456.227 393.773 457.293 392.879 457.069L388.419 455.402L389.21 458.252C389.751 459.794 388.402 460.493 387.259 459.892L382.816 457.705C382.928 458.996 381.622 459.91 380.513 459.31C378.468 458.198 377.686 457.481 374.858 455.474C374.154 454.981 373.32 454.73 372.469 454.775C364.89 455.169 359.544 456.155 354.921 458.127C351.492 459.588 351.406 463.307 351.346 464.472C351.243 466.435 348.699 472.315 348.699 472.315L324.765 467.179L320.529 450.562L345.416 447.882Z" fill="#274D76"/>
<path d="M331.443 452.31C341.865 452.31 350.315 443.129 350.315 431.803C350.315 420.477 341.865 411.295 331.443 411.295C321.02 411.295 312.571 420.477 312.571 431.803C312.571 443.129 321.02 452.31 331.443 452.31Z" fill="#FFF3A1"/>
<path d="M339.65 480.221C339.65 480.221 328.04 501.606 326.295 514.244C325.736 518.313 328.581 522.051 332.5 522.535C335.972 522.956 341.343 523.162 349.429 522.49C348.261 518.681 350.925 484.819 352.068 471.132C352.222 469.295 350.048 468.309 348.854 469.671L339.65 480.221Z" fill="white"/>
<path d="M379.284 470.029C381.768 475.425 391.143 496.013 393.146 504.277C393.395 505.299 392.622 506.267 391.616 506.204C382.447 505.568 373.595 506.966 369.822 507.683C368.86 507.862 368.001 507.047 368.078 506.034L370.639 473.059C370.682 472.476 371.043 471.965 371.558 471.75L377.376 469.277C378.107 468.963 378.94 469.294 379.284 470.029Z" fill="white"/>
<path d="M390.989 497.617C386.743 486.037 378.674 468.721 378.674 468.721L376.775 469.528L385.781 506.043C388.282 506.016 390.894 506.177 393.507 506.437C393.386 504.698 392.398 501.481 390.989 497.617Z" fill="#93B4F6"/>
<path d="M393.515 506.437C393.507 506.285 386.58 500.423 386.58 500.423C385.394 499.482 383.796 499.356 382.498 500.1L368.963 507.836C372.228 507.181 382.868 505.362 393.515 506.437Z" fill="#274D76"/>
<path d="M325.04 437.826C324.722 441.402 325.487 444.763 327.008 447.586C328.031 449.477 329.956 450.696 332.044 450.696C332.053 450.696 332.07 450.696 332.079 450.696C341.48 450.696 349.103 442.415 349.103 432.197C349.103 432.179 349.103 432.152 349.103 432.134C349.086 427.823 346.129 424.157 342.219 423.476C341.025 423.27 339.779 423.216 338.498 423.333C331.434 424.005 325.719 430.162 325.04 437.826Z" fill="black"/>
<path d="M385.927 472.647L381.871 473.14C381.544 473.176 381.381 472.745 381.639 472.539L385.042 469.859C386.374 468.811 385.575 466.606 383.916 466.74C380.229 467.036 375.477 467.448 372.082 467.825C371.524 467.888 371.275 467.099 371.764 466.803C373.286 465.898 374.085 465.459 375.666 464.535C377.926 463.209 375.7 461.345 373.114 461.443C368.275 461.64 363.454 464.679 359.785 464.679C353.15 464.679 334.786 463.747 334.786 463.747C333.333 463.693 331.984 462.922 331.168 461.667L316.249 438.641C312.072 432.887 304.192 431.821 298.752 436.275C293.587 440.497 292.479 448.196 296.234 453.816L318.079 483.008C320.099 485.706 323.167 487.337 326.45 487.454L374.016 486.701C379.688 486.71 383.675 481.35 384.182 478.562C385.643 477.532 386.683 476.402 387.431 475.381C388.299 474.18 387.371 472.468 385.927 472.647Z" fill="#FFF3A1"/>
<path d="M327.395 260.547C327.395 260.547 331.434 276.376 341.618 297.833C356.055 328.245 363.102 340.425 370.527 353.484C379.568 369.385 407.171 385.509 460.426 351.1C515.607 315.454 507.193 291.971 503.532 283.797C501.367 278.957 483.793 244.701 469.209 218.699C463.52 208.553 458.149 199.886 454.574 194.293C451.6 189.641 446.822 186.621 441.494 185.993C426.971 184.281 396.205 184.452 364.572 208.356C320.958 241.322 327.395 260.547 327.395 260.547Z" fill="white"/>
<path d="M505.75 301.203C507.202 293.558 504.04 285.742 497.878 281.315C482.254 270.075 451.652 269.591 412.851 295.153C370.218 323.243 369.229 347.013 375.572 360.18C387.998 372.97 414.793 380.579 460.418 351.1C493.117 329.983 503.481 313.133 505.75 301.203Z" fill="#F2BDBA"/>
<path d="M383.555 359.31C378.253 351.396 378.15 326.604 417.947 299.904C458.063 272.988 493.254 280.642 498.428 295.153C503.601 309.664 474.778 336.239 442.672 353.251C413.625 368.65 389.433 368.085 383.555 359.31Z" fill="black"/>
<path d="M349.094 516.736C345.596 516.727 341.91 516.924 338.223 517.229C329.921 517.919 328.804 520.643 329.586 521.477C330.317 522.257 331.425 522.678 332.5 522.804C335.971 523.225 343.139 523.467 350.77 522.535C349.094 520.608 349.103 519.676 349.094 516.736Z" fill="black"/>
<path d="M407.472 463.37C404.988 460.17 403.57 460.565 399.033 460.493C400.958 467.43 404.309 482.049 407.661 495.377C411.012 508.696 411.029 515.472 411.029 515.472C415.24 514.889 418.635 514.235 426.876 512.792C433.605 511.609 434.207 505.801 430.726 500.423L407.472 463.37Z" fill="white"/>
<path d="M407.738 518.161C408.219 516.888 407.429 515.615 405.409 514.576C401.396 512.496 393.541 510.865 378.236 511.761C364.125 512.586 356.966 516.225 353.365 519.434C351.44 521.154 351.569 522.481 353.271 523.557C374.48 528.925 396.42 525.932 407.738 518.161Z" fill="#F2BDBA"/>
<path d="M427.753 512.953C429.454 512.496 429.721 510.596 428.836 509.933C428.457 509.655 428.011 509.368 427.478 509.081C423.293 506.841 416.607 506.868 410.213 507.665C411.021 512.846 411.167 514.092 410.256 515.848C415.464 515.472 427.246 513.088 427.753 512.953Z" fill="black"/>
<path d="M378.218 255.304C375.718 248.743 375.64 241.429 378.588 236.634C379.275 235.513 380.539 233.685 379.903 232.538L374.368 224.166C373.2 222.051 370.149 223.378 368.748 225.341C361.847 235.047 359.269 247.694 364.426 261.192C371.997 281.045 386.056 286.853 400.545 283.161C402.891 282.56 404.034 279.791 402.822 277.613L398.594 270.308C397.666 268.632 395.887 267.708 394.031 267.861C387.775 268.39 381.587 264.123 378.218 255.304ZM419.494 231.883C408.537 213.787 391.126 211.027 379.722 215.544C377.729 216.333 376.826 218.744 377.892 220.671L384.114 229.463C384.853 230.79 386.314 231.435 387.749 231.149C393.833 229.921 401.31 232.376 406.234 240.138C410.144 246.305 410.136 255.958 403.931 262.16C402.573 263.523 402.711 265.862 403.656 267.565L407.626 274.709C409.199 277.532 412.714 277.801 415.111 275.712C426.352 265.925 427.177 244.575 419.494 231.883Z" fill="#93B4F6"/>
<path d="M664.958 230.62C664.365 230.62 663.763 230.458 663.213 230.127C659.002 227.572 651.405 222.58 647.839 217.946C646.833 216.638 646.859 214.728 647.916 213.402L659.079 199.366C660.257 197.878 662.345 197.618 663.832 198.765C667.338 201.481 673.723 206.5 677.118 209.637C678.484 210.901 678.699 212.999 677.616 214.522C673.715 220.026 669.822 225.977 667.854 229.024C667.175 230.055 666.075 230.62 664.958 230.62ZM661.752 199.841C661.245 199.841 660.738 200.065 660.394 200.504L649.231 214.54C648.698 215.212 648.672 216.163 649.179 216.817C652.703 221.397 660.772 226.568 664.081 228.576C664.88 229.06 665.903 228.818 666.418 228.021C668.404 224.955 672.305 218.986 676.224 213.447C676.765 212.676 676.662 211.609 675.966 210.973C672.623 207.881 666.281 202.897 662.792 200.199C662.483 199.957 662.113 199.841 661.752 199.841Z" fill="black"/>
<path d="M827.388 549.701C827.173 549.701 826.958 549.692 826.735 549.665C824.947 549.486 823.34 548.581 822.215 547.129L803.695 523.153C801.495 520.303 801.813 516.153 804.408 513.697L824.879 494.4C826.228 493.127 827.964 492.5 829.768 492.634C831.582 492.769 833.215 493.638 834.383 495.081L853.977 519.433C856.323 522.346 855.954 526.702 853.169 529.149L831.633 548.061C830.43 549.137 828.943 549.701 827.388 549.701ZM805.568 515.033C803.643 516.852 803.411 519.917 805.036 522.033L823.555 546.008C824.389 547.084 825.575 547.756 826.898 547.891C828.221 548.025 829.511 547.604 830.525 546.717L852.061 527.805C854.123 525.994 854.389 522.768 852.662 520.607L833.068 496.255C832.209 495.18 830.989 494.534 829.648 494.445C828.307 494.355 827.018 494.812 826.03 495.753L805.568 515.033Z" fill="black"/>
<path d="M726.222 507.656L724.882 506.536L734.532 493.907C735.1 493.163 734.902 492.383 734.524 491.899C734.146 491.415 733.45 491.057 732.633 491.487L721.728 497.34C720.301 498.102 718.686 497.734 717.689 496.434C716.692 495.135 716.726 493.405 717.757 492.132L727.46 480.185C728.061 479.441 727.864 478.643 727.486 478.15C727.099 477.657 726.403 477.281 725.578 477.738L697.468 492.661L696.686 491.066L724.787 476.142C726.197 475.363 727.829 475.721 728.826 477.021C729.832 478.329 729.806 480.059 728.775 481.341L719.072 493.288C718.471 494.023 718.66 494.821 719.038 495.314C719.416 495.807 720.112 496.184 720.937 495.744L731.834 489.892C733.235 489.139 734.842 489.488 735.839 490.752C736.836 492.016 736.844 493.737 735.865 495.018L726.222 507.656Z" fill="black"/>
<path d="M773.008 526.24L760.464 561.519L762.076 562.142L774.62 526.864L773.008 526.24Z" fill="black"/>
<path d="M792.688 533.904L791.067 534.499L805.535 577.373L807.156 576.778L792.688 533.904Z" fill="black"/>
<path d="M792.089 563.585L790.389 563.847L793.373 584.924L795.074 584.662L792.089 563.585Z" fill="black"/>
<path d="M772.751 555.46L769.661 572.346L771.349 572.683L774.44 555.796L772.751 555.46Z" fill="black"/>
<path d="M635.196 216.936L633.685 217.791L649.279 247.757L650.789 246.902L635.196 216.936Z" fill="black"/>
<path d="M635.294 232.86L633.642 233.356L638.457 250.826L640.109 250.33L635.294 232.86Z" fill="black"/>
<path d="M627.521 219.777L626.031 246.03L627.747 246.135L629.237 219.883L627.521 219.777Z" fill="black"/>
<path d="M582.096 229.957L580.438 229.491L584.855 212.264C585.13 211.179 586.067 210.507 587.141 210.624C588.207 210.74 588.989 211.609 589.049 212.721L589.539 223.037C589.556 223.324 589.745 223.414 589.865 223.441C589.986 223.467 590.192 223.476 590.321 223.216L596.697 210.095L598.227 210.901L591.859 224.023C591.412 224.937 590.475 225.403 589.513 225.188C588.55 224.973 587.88 224.149 587.829 223.127L587.339 212.811C587.322 212.488 587.098 212.416 586.969 212.407C586.84 212.389 586.608 212.416 586.531 212.721L582.096 229.957Z" fill="black"/>
<path d="M758.776 139.751L758.506 141.521L783.659 145.703L783.93 143.933L758.776 139.751Z" fill="black"/>
<path d="M760.504 147.781L759.879 149.45L783.494 159.07L784.119 157.4L760.504 147.781Z" fill="black"/>
<path d="M760.837 154.703L759.534 155.873L776.233 176.112L777.536 174.942L760.837 154.703Z" fill="black"/>
<path d="M735.246 635.253L735.151 635.244L686.012 629.382L686.21 627.599L735.297 633.452C736.483 633.434 737.128 632.582 737.343 631.793C737.557 630.996 737.411 629.902 736.363 629.257L679.816 601.418C678.054 600.324 677.393 598.272 678.132 596.372C678.871 594.472 680.727 593.477 682.635 593.961L727.486 604.367C728.775 604.689 729.625 603.901 729.969 603.121C730.304 602.359 730.339 601.203 729.342 600.396L691.77 581.027L692.535 579.423L730.304 598.908C732.075 600.262 732.195 602.377 731.533 603.874C730.871 605.371 729.247 606.643 727.107 606.115L682.257 595.709C680.907 595.368 680.057 596.219 679.73 597.053C679.404 597.878 679.447 599.106 680.624 599.84L737.171 627.679C738.786 628.683 739.474 630.467 739.001 632.277C738.511 634.088 737.042 635.253 735.246 635.253Z" fill="black"/>
<path d="M312.038 466.131C311.857 466.131 311.677 466.122 311.497 466.095C310.422 465.934 309.468 465.297 308.875 464.347L304.372 457.15C303.247 455.357 303.719 452.919 305.429 451.727L311.436 447.524C313.155 446.323 315.493 446.798 316.653 448.572L320.821 454.936C321.912 456.603 321.62 458.844 320.15 460.152L314.487 465.19C313.8 465.808 312.932 466.131 312.038 466.131ZM313.542 448.662C313.147 448.662 312.751 448.778 312.399 449.02L306.392 453.224C305.464 453.878 305.206 455.196 305.816 456.182L310.319 463.379C310.646 463.899 311.161 464.239 311.746 464.329C312.339 464.419 312.923 464.239 313.37 463.836L319.033 458.799C319.832 458.082 319.996 456.863 319.394 455.958L315.226 449.594C314.848 448.985 314.195 448.662 313.542 448.662Z" fill="black"/>
<path d="M328.329 466.812L318.921 477.096L320.164 478.334L329.573 468.049L328.329 466.812Z" fill="black"/>
<path d="M325.463 476.239L322.955 481.525L324.495 482.32L327.003 477.034L325.463 476.239Z" fill="black"/>
<path d="M332.339 466.62L328.831 484.076L330.513 484.444L334.021 466.987L332.339 466.62Z" fill="black"/>
<path d="M351.904 480.713C351.861 480.713 351.827 480.713 351.784 480.713C350.641 480.66 349.67 479.898 349.309 478.768L347.779 473.946L349.412 473.382L350.942 478.204C351.148 478.84 351.689 478.921 351.853 478.921C352.016 478.921 352.566 478.903 352.824 478.284L354.311 474.654C354.671 473.776 355.419 473.149 356.322 472.978C357.224 472.808 358.135 473.104 358.771 473.785L363.265 478.589C363.661 479.01 364.142 478.966 364.468 478.777C364.795 478.589 365.096 478.186 364.967 477.612L362.879 468.291L364.554 467.887L366.643 477.209C366.926 478.464 366.385 479.727 365.302 480.346C364.211 480.964 362.904 480.758 362.036 479.835L357.542 475.031C357.301 474.771 356.966 474.663 356.639 474.735C356.304 474.798 356.029 475.031 355.9 475.354L354.414 478.984C353.975 480.05 353.004 480.713 351.904 480.713Z" fill="black"/>
<path d="M241.121 408.854L228.814 413.259L229.372 414.954L241.679 410.55L241.121 408.854Z" fill="black"/>
<path d="M237.717 414.568L231.1 420.316L232.2 421.693L238.817 415.945L237.717 414.568Z" fill="black"/>
<path d="M242.621 414.915L237.477 428.717L239.079 429.366L244.223 415.564L242.621 414.915Z" fill="black"/>
<path d="M196.521 374.699C196.332 374.699 196.134 374.682 195.945 374.637L194.458 374.296L194.828 372.548L196.315 372.889C196.59 372.952 196.873 372.889 197.097 372.728C197.329 372.557 197.475 372.306 197.509 372.011L197.664 370.756C197.767 369.958 198.188 369.241 198.824 368.784C199.46 368.327 200.259 368.183 201.007 368.372L203.963 369.133C204.281 369.214 204.607 369.133 204.848 368.909C205.097 368.685 205.218 368.363 205.192 368.022L205.046 366.301C204.968 365.387 205.304 364.509 205.965 363.908C206.627 363.307 207.504 363.074 208.363 363.29L210.297 363.765C210.614 363.845 210.932 363.756 211.182 363.532C211.422 363.308 211.551 362.985 211.517 362.644C211.422 361.658 211.818 360.717 212.574 360.117C213.33 359.516 214.31 359.373 215.195 359.731L217.412 360.619L216.793 362.295L214.576 361.407C214.25 361.273 213.897 361.327 213.614 361.551C213.33 361.775 213.193 362.115 213.227 362.483C213.313 363.406 212.978 364.275 212.316 364.885C211.654 365.494 210.769 365.728 209.91 365.512L207.976 365.037C207.658 364.966 207.34 365.046 207.091 365.261C206.85 365.486 206.722 365.799 206.756 366.14L206.902 367.861C206.979 368.775 206.636 369.671 205.965 370.263C205.295 370.854 204.393 371.087 203.542 370.863L200.586 370.101C200.311 370.03 200.027 370.084 199.786 370.254C199.546 370.424 199.4 370.675 199.357 370.98L199.202 372.235C199.099 373.014 198.695 373.722 198.068 374.18C197.621 374.52 197.079 374.699 196.521 374.699Z" fill="black"/>
<path d="M757.547 82.4173C757.521 82.4173 757.504 82.4173 757.478 82.4173C756.601 82.3904 755.845 81.8526 755.501 81.019L754.109 77.6489C753.989 77.3621 753.748 77.3263 753.645 77.3263C753.645 77.3263 753.645 77.3263 753.636 77.3263C753.533 77.3263 753.284 77.3621 753.172 77.6579L751.617 81.7092L750.018 81.0459L751.574 76.9947C751.909 76.1163 752.708 75.5516 753.611 75.5337C753.619 75.5337 753.628 75.5337 753.636 75.5337C754.53 75.5337 755.329 76.0804 755.682 76.9319L757.074 80.302C757.186 80.5798 757.426 80.6157 757.529 80.6247C757.624 80.6247 757.865 80.6067 757.993 80.3289L758.999 78.2315C759.334 77.5324 759.979 77.0574 760.718 76.9678C761.465 76.8692 762.196 77.165 762.677 77.7655L764.336 79.7821C764.516 79.9972 764.74 79.9704 764.825 79.9524C764.911 79.9345 765.126 79.8628 765.204 79.585L766.209 76.0804C766.432 75.3096 767.008 74.7181 767.765 74.503C768.512 74.2878 769.303 74.494 769.861 75.0497L773.11 78.2226C773.299 78.4108 773.522 78.375 773.608 78.3391C773.694 78.3122 773.892 78.2226 773.952 77.9537L774.588 75.0855C774.768 74.2878 775.31 73.6604 776.057 73.4005C776.805 73.1406 777.604 73.3109 778.197 73.8397L780.526 75.9101C780.732 76.0894 780.947 76.0356 781.033 75.9998C781.119 75.9639 781.317 75.8653 781.36 75.5875L781.798 72.7462C781.927 71.9037 782.494 71.2046 783.268 70.9267C784.05 70.6489 784.9 70.8371 785.502 71.4197C785.725 71.6348 785.957 71.5541 786.052 71.5183C786.146 71.4735 786.353 71.348 786.353 71.0343V68.9907H788.071V71.0343C788.071 71.9754 787.564 72.7821 786.739 73.1585C785.914 73.535 784.995 73.3736 784.333 72.7372C784.135 72.5401 783.912 72.5938 783.826 72.6297C783.74 72.6566 783.534 72.7641 783.491 73.042L783.053 75.8832C782.924 76.7168 782.391 77.398 781.626 77.6938C780.861 77.9895 780.036 77.8372 779.418 77.2815L777.089 75.211C776.891 75.0407 776.685 75.0855 776.599 75.1124C776.521 75.1393 776.324 75.2379 776.264 75.4978L775.628 78.366C775.447 79.1816 774.88 79.818 774.107 80.0689C773.333 80.3109 772.525 80.1138 771.932 79.5401L768.684 76.3673C768.495 76.188 768.289 76.2238 768.203 76.2418C768.117 76.2687 767.919 76.3493 767.85 76.6003L766.845 80.1048C766.613 80.9204 765.968 81.5299 765.178 81.7092C764.379 81.8884 763.554 81.5927 763.029 80.9473L761.371 78.9307C761.207 78.7335 761.01 78.7424 760.924 78.7514C760.847 78.7604 760.64 78.8141 760.529 79.0382L759.523 81.1355C759.154 81.9243 758.397 82.4173 757.547 82.4173Z" fill="black"/>
<path d="M755.03 68.7917L754.164 70.3401L762.367 75.3297L763.233 73.7813L755.03 68.7917Z" fill="black"/>
<path d="M762.754 65.4944L761.919 67.0615L772.58 73.2376L773.414 71.6705L762.754 65.4944Z" fill="black"/>
<path d="M772.501 64.3928L771.764 66.0125L780.538 70.3534L781.274 68.7338L772.501 64.3928Z" fill="black"/>
<path d="M683.786 763.298L682.205 762.599L684.835 756.145C685.471 754.586 686.725 753.43 688.29 752.964C689.854 752.497 691.504 752.793 692.836 753.77L695.568 755.778C696.522 756.477 697.7 756.665 698.808 756.271C699.917 755.885 700.75 754.998 701.111 753.842L701.584 752.309C702.117 750.561 703.449 749.208 705.125 748.679C706.8 748.15 708.631 748.518 709.997 749.656L712.773 751.96C713.727 752.748 714.939 752.99 716.099 752.614C717.259 752.246 718.136 751.332 718.496 750.122L719.21 747.729C719.734 745.972 720.997 744.637 722.682 744.081C724.366 743.516 726.136 743.839 727.546 744.951L730.734 747.469C731.696 748.231 732.908 748.446 734.06 748.052C735.211 747.657 736.062 746.734 736.406 745.524L737.6 741.285C738.125 739.429 739.5 738.013 741.287 737.484C743.066 736.965 744.957 737.431 746.332 738.73L748.893 741.159C749.846 742.064 751.161 742.378 752.399 741.975C753.636 741.581 754.556 740.559 754.865 739.25C755.321 737.296 756.696 735.781 758.552 735.217C760.4 734.652 762.342 735.136 763.743 736.525L767.73 740.478L766.544 741.778L762.557 737.825C761.603 736.884 760.288 736.552 759.033 736.938C757.778 737.323 756.842 738.345 756.532 739.68C756.085 741.616 754.728 743.113 752.906 743.696C751.084 744.278 749.15 743.83 747.741 742.486L745.18 740.057C744.252 739.169 742.971 738.856 741.76 739.214C740.548 739.573 739.611 740.532 739.259 741.787L738.064 746.026C737.566 747.783 736.277 749.172 734.61 749.746C732.934 750.319 731.104 749.997 729.703 748.894L726.514 746.376C725.561 745.623 724.357 745.408 723.214 745.784C722.071 746.161 721.212 747.066 720.86 748.258L720.146 750.651C719.622 752.408 718.299 753.779 716.614 754.326C714.93 754.864 713.1 754.505 711.716 753.358L708.94 751.054C707.995 750.266 706.792 750.024 705.632 750.391C704.471 750.759 703.595 751.655 703.225 752.856L702.753 754.389C702.229 756.101 700.991 757.4 699.358 757.974C697.725 758.547 695.989 758.279 694.58 757.239L691.847 755.231C690.945 754.568 689.828 754.371 688.762 754.684C687.705 754.998 686.846 755.787 686.416 756.844L683.786 763.298Z" fill="black"/>
<path d="M627.626 718.886H625.907V710.291C625.907 709.108 625.323 708.05 624.352 707.45C623.381 706.849 622.204 706.831 621.215 707.396L617.58 709.484C616.051 710.363 614.237 710.336 612.742 709.404C611.238 708.48 610.344 706.84 610.344 705.021V702.063C610.344 700.942 609.829 699.939 608.935 699.311C608.041 698.684 606.95 698.576 605.961 699.015L601.295 701.05C599.782 701.713 598.064 701.543 596.706 700.593C595.34 699.643 594.523 698.056 594.523 696.353V695.377C594.523 694.256 594.016 693.261 593.122 692.634C592.229 692.006 591.146 691.89 590.158 692.32L585.689 694.229C584.176 694.875 582.466 694.695 581.117 693.745C579.759 692.795 578.951 691.218 578.951 689.515C578.951 688.385 578.436 687.381 577.533 686.763C576.631 686.136 575.54 686.037 574.551 686.476L571.079 688.009C569.739 688.6 568.235 688.538 566.946 687.848C565.657 687.157 564.729 685.921 564.411 684.442L563.964 682.398C563.749 681.43 563.147 680.623 562.305 680.184C561.454 679.736 560.475 679.709 559.607 680.113L553.436 682.936L552.749 681.296L558.919 678.472C560.26 677.863 561.781 677.899 563.087 678.589C564.393 679.279 565.33 680.525 565.657 682.013L566.104 684.056C566.31 685.015 566.911 685.813 567.745 686.261C568.579 686.709 569.558 686.745 570.426 686.369L573.898 684.836C575.411 684.164 577.129 684.334 578.504 685.284C579.871 686.234 580.687 687.821 580.687 689.533C580.687 690.653 581.194 691.648 582.088 692.275C582.982 692.903 584.056 693.01 585.053 692.589L589.522 690.68C591.034 690.035 592.744 690.214 594.093 691.164C595.451 692.114 596.259 693.691 596.259 695.394V696.371C596.259 697.492 596.775 698.496 597.668 699.123C598.562 699.75 599.654 699.858 600.642 699.419L605.308 697.384C606.821 696.73 608.54 696.9 609.897 697.841C611.264 698.791 612.072 700.378 612.072 702.081V705.039C612.072 706.222 612.656 707.279 613.627 707.88C614.598 708.48 615.775 708.498 616.764 707.934L620.399 705.845C621.929 704.967 623.742 704.994 625.237 705.926C626.741 706.849 627.635 708.489 627.635 710.309V718.886H627.626Z" fill="black"/>
<path d="M820.874 444.1C812.933 457.544 791.793 464.589 781.497 450.141C770.059 434.079 778.215 399.921 802.019 398.487C807.451 398.156 812.865 400.011 817.144 403.704C828.007 413.088 829.777 429.024 820.874 444.1Z" fill="black"/>
<path d="M793.726 426.299C790.805 435.719 787.453 446.134 783.251 440.792C780.638 437.467 779.048 429.472 780.913 421.871C782.383 415.884 786.49 410.139 790.572 407.127C792.686 405.568 794.826 405.209 796.537 406.159C800.902 408.57 797.001 415.732 793.726 426.299Z" fill="#74BAAB"/>
<path d="M628.692 164.662C624.283 169.582 619.325 174.969 617.288 169.358C616.025 165.872 616.618 159.732 619.797 155.528C622.298 152.212 626.784 150.33 630.625 150.267C632.619 150.24 634.346 151.029 635.464 152.49C638.282 156.209 633.633 159.14 628.692 164.662Z" fill="#74BAAB"/>
<path d="M340.655 434.868C340.715 431.65 340.836 428.083 343.199 429.391C344.668 430.207 347.496 436.669 344.256 440.622C343.646 441.366 342.743 441.599 341.927 441.447C339.856 441.07 340.586 438.471 340.655 434.868Z" fill="#74BAAB"/>
<path d="M402.487 518.483C402.857 517.65 402.195 516.834 400.545 516.198C397.254 514.934 390.851 514.029 378.433 514.925C366.986 515.749 361.237 518.268 358.358 520.428C356.82 521.584 356.94 522.454 358.35 523.108C375.658 526.173 393.421 523.771 402.487 518.483Z" fill="black"/>
<path d="M703.32 441.724C701.885 435.047 697.94 414.531 697.897 414.325L699.582 413.975C699.625 414.181 703.561 434.671 704.996 441.33L703.32 441.724Z" fill="black"/>
<path d="M720.739 443.903C718.969 441.223 717.422 437.655 716.494 434.124C716.168 432.887 715.867 431.686 715.583 430.53C714.131 424.731 712.988 420.142 710.212 417.498L711.372 416.171C714.526 419.174 715.729 423.987 717.25 430.073C717.534 431.22 717.835 432.412 718.161 433.64C719.046 436.992 720.499 440.362 722.166 442.881L720.739 443.903Z" fill="black"/>
<path d="M728.895 444.315L727.176 444.261C727.219 442.854 727.09 441.016 726.961 439.071C726.833 437.073 726.678 434.814 726.678 432.627C726.678 428.639 727.623 424.749 729.204 422.203L730.648 423.18C729.239 425.448 728.397 428.97 728.397 432.627C728.397 434.742 728.534 436.884 728.672 438.946C728.809 440.936 728.938 442.818 728.895 444.315Z" fill="black"/>
<path d="M784.574 515.606C782.752 515.606 780.956 514.809 779.693 513.276L765.384 495.834L766.69 494.669L780.999 512.111C782.658 514.136 785.605 514.405 787.573 512.702L830.198 472.217C832.536 470.128 835.165 468.38 838.027 467.018L838.74 468.649C836.025 469.94 833.532 471.598 831.332 473.561L788.699 514.056C787.496 515.095 786.026 515.606 784.574 515.606Z" fill="black"/>
<path d="M787.41 593.575C780.062 593.575 772.319 590.268 765.633 581.43L749.168 562.42L750.44 561.219L766.948 580.274C779.031 596.237 794.714 593.073 804.468 585.535C812.271 579.503 823.134 569.859 836.755 556.863L837.915 558.189C824.251 571.222 813.337 580.91 805.491 586.978C800.524 590.806 794.13 593.575 787.41 593.575Z" fill="black"/>
<path d="M680.409 447.066C679.455 445.319 678.664 443.571 677.848 441.384L679.455 440.739C680.246 442.863 680.976 444.494 681.904 446.179L680.409 447.066Z" fill="black"/>
<path d="M690.533 443.929C689.14 441.213 686.528 435.585 684.672 428.432L686.33 427.966C688.135 434.948 690.687 440.434 692.045 443.078L690.533 443.929Z" fill="black"/>
<path d="M809.152 470.245C795.256 470.245 782.503 462.33 775.868 449.585L777.381 448.725C783.715 460.887 795.892 468.452 809.152 468.452V470.245Z" fill="black"/>
<path d="M576.175 200.513C574.809 200.513 573.133 199.742 571.354 198.255C569.395 196.623 566.361 194.069 563.878 191.989L564.961 190.591C567.444 192.68 570.469 195.225 572.429 196.856C574.259 198.389 576.038 199.07 576.854 198.55C577.593 198.084 577.765 196.498 577.344 194.185C576.837 191.425 576.966 189.211 577.739 187.589L579.278 188.386C578.865 189.256 578.487 190.905 579.029 193.845C579.622 197.071 579.192 199.169 577.739 200.083C577.284 200.37 576.751 200.513 576.175 200.513Z" fill="black"/>
<path d="M639.065 210.301L637.836 209.046L660.85 184.47C668.928 175.838 682.025 175.372 690.653 183.403L689.51 184.739C681.569 177.344 669.521 177.774 662.087 185.715L639.065 210.301Z" fill="black"/>
<path d="M690.342 214.797L666.991 239.268L668.209 240.533L691.56 216.061L690.342 214.797Z" fill="black"/>
<path d="M320.786 447.246L315.544 439.152C313.697 436.607 310.955 434.949 307.87 434.527C304.785 434.115 301.734 434.984 299.285 436.983L298.228 435.576C301.047 433.273 304.544 432.269 308.093 432.753C311.643 433.237 314.779 435.137 316.945 438.113L322.213 446.242L320.786 447.246Z" fill="black"/>
<path d="M349.48 490.62L348.462 511.494L350.179 511.585L351.197 490.711L349.48 490.62Z" fill="black"/>
<path d="M401.204 465.026L399.538 465.464L407.939 500.23L409.606 499.792L401.204 465.026Z" fill="black"/>
</g>
<defs>
<clipPath id="clip0">
<rect width="1064" height="791" fill="white"/>
</clipPath>
</defs>
</svg>
