<svg width="660" height="540" viewBox="0 0 660 540" fill="none" xmlns="http://www.w3.org/2000/svg">
<rect width="659" height="540" transform="translate(0.5)" fill="white"/>
<rect width="488" height="495" transform="translate(86 22.5)" fill="white"/>
<path d="M187.667 125.625H228.333V187.5H431.667V125.625H472.333V228.75H513V125.625C513 102.937 494.7 84.3749 472.333 84.3749H387.34C378.8 60.4499 356.433 43.1249 330 43.1249C303.567 43.1249 281.2 60.4499 272.66 84.3749H187.667C165.3 84.3749 147 102.937 147 125.625V414.375C147 437.062 165.3 455.625 187.667 455.625H309.667V414.375H187.667V125.625ZM330 84.3749C341.183 84.3749 350.333 93.6561 350.333 105C350.333 116.344 341.183 125.625 330 125.625C318.817 125.625 309.667 116.344 309.667 105C309.667 93.6561 318.817 84.3749 330 84.3749Z" fill="#DE6980"/>
<path d="M513 259.687L401.37 373.125L340.167 311.25L309.667 342.187L401.37 435L543.5 290.625L513 259.687Z" fill="#DE6980"/>
</svg>
