<svg width="777" height="476" viewBox="0 0 777 476" fill="none" xmlns="http://www.w3.org/2000/svg">
<rect width="777" height="476" fill="white"/>
<path d="M498.114 120.312C493.345 120.312 488.682 118.848 484.717 116.105C480.751 113.361 477.661 109.462 475.836 104.9C474.01 100.338 473.533 95.318 474.463 90.475C475.394 85.6319 477.69 81.1833 481.063 77.6917C484.435 74.2 488.732 71.8222 493.409 70.8588C498.087 69.8955 502.935 70.3899 507.342 72.2796C511.748 74.1692 515.514 77.3693 518.164 81.475C520.813 85.5807 522.228 90.4078 522.228 95.3457C522.22 101.965 519.677 108.311 515.157 112.992C510.636 117.672 504.507 120.305 498.114 120.312ZM498.114 71.4194C493.543 71.4194 489.075 72.8226 485.275 75.4517C481.475 78.0808 478.513 81.8175 476.764 86.1895C475.015 90.5615 474.557 95.3723 475.449 100.014C476.34 104.655 478.541 108.918 481.773 112.264C485.005 115.61 489.123 117.889 493.605 118.812C498.088 119.736 502.735 119.262 506.957 117.451C511.18 115.64 514.789 112.573 517.328 108.638C519.867 104.704 521.223 100.078 521.223 95.3457C521.216 89.0023 518.779 82.9207 514.447 78.4352C510.114 73.9497 504.241 71.4266 498.114 71.4194Z" fill="#F2F2F2"/>
<path d="M661.886 105.748C659.502 105.748 657.171 105.016 655.188 103.645C653.205 102.273 651.66 100.323 650.747 98.0423C649.835 95.7613 649.596 93.2513 650.061 90.8298C650.526 88.4083 651.675 86.184 653.361 84.4381C655.047 82.6923 657.195 81.5034 659.534 81.0217C661.873 80.5401 664.297 80.7873 666.5 81.7321C668.703 82.6769 670.586 84.277 671.911 86.3298C673.236 88.3827 673.943 90.7962 673.943 93.2652C673.94 96.5748 672.668 99.7478 670.408 102.088C668.147 104.428 665.083 105.745 661.886 105.748ZM661.886 81.8221C659.7 81.8221 657.564 82.4933 655.746 83.7506C653.929 85.008 652.512 86.7952 651.675 88.8861C650.839 90.9771 650.62 93.2779 651.047 95.4976C651.473 97.7173 652.526 99.7563 654.071 101.357C655.617 102.957 657.586 104.047 659.73 104.488C661.874 104.93 664.096 104.703 666.116 103.837C668.135 102.971 669.861 101.504 671.076 99.6226C672.29 97.7408 672.938 95.5284 672.938 93.2652C672.935 90.2313 671.77 87.3228 669.698 85.1775C667.626 83.0323 664.817 81.8256 661.886 81.8221Z" fill="#F2F2F2"/>
<path d="M556.995 42.0154C554.611 42.0154 552.28 41.2833 550.297 39.9116C548.314 38.5399 546.769 36.5903 545.856 34.3092C544.944 32.0282 544.705 29.5183 545.17 27.0967C545.635 24.6752 546.784 22.4509 548.47 20.7051C550.156 18.9592 552.304 17.7703 554.643 17.2887C556.982 16.807 559.406 17.0542 561.609 17.999C563.812 18.9439 565.695 20.5439 567.02 22.5967C568.345 24.6496 569.052 27.0631 569.052 29.5321C569.049 32.8417 567.777 36.0147 565.517 38.355C563.256 40.6952 560.192 42.0116 556.995 42.0154ZM556.995 18.0891C554.809 18.0891 552.673 18.7602 550.855 20.0176C549.038 21.2749 547.621 23.0621 546.784 25.153C545.948 27.244 545.729 29.5448 546.156 31.7645C546.582 33.9843 547.635 36.0232 549.18 37.6235C550.726 39.2239 552.695 40.3137 554.839 40.7552C556.983 41.1968 559.205 40.9702 561.225 40.1041C563.244 39.238 564.97 37.7713 566.185 35.8895C567.399 34.0077 568.047 31.7953 568.047 29.5321C568.044 26.4983 566.879 23.5897 564.807 21.4444C562.735 19.2992 559.926 18.0925 556.995 18.0891Z" fill="#F2F2F2"/>
<path d="M249.184 465C246.799 465 244.468 464.268 242.485 462.896C240.502 461.524 238.957 459.575 238.045 457.294C237.132 455.013 236.893 452.503 237.358 450.081C237.824 447.66 238.972 445.435 240.658 443.69C242.344 441.944 244.493 440.755 246.831 440.273C249.17 439.792 251.595 440.039 253.798 440.984C256.001 441.928 257.884 443.528 259.209 445.581C260.533 447.634 261.241 450.048 261.241 452.517C261.237 455.826 259.965 458.999 257.705 461.34C255.445 463.68 252.38 464.996 249.184 465ZM249.184 441.074C246.998 441.074 244.861 441.745 243.043 443.002C241.226 444.26 239.809 446.047 238.973 448.138C238.136 450.229 237.917 452.529 238.344 454.749C238.77 456.969 239.823 459.008 241.369 460.608C242.914 462.208 244.884 463.298 247.028 463.74C249.171 464.181 251.394 463.955 253.413 463.089C255.433 462.223 257.159 460.756 258.373 458.874C259.588 456.992 260.236 454.78 260.236 452.517C260.233 449.483 259.067 446.574 256.995 444.429C254.923 442.284 252.114 441.077 249.184 441.074Z" fill="#F2F2F2"/>
<path d="M76.1203 414C74.3641 414 72.6472 413.444 71.187 412.402C69.7267 411.36 68.5886 409.879 67.9165 408.146C67.2444 406.413 67.0686 404.506 67.4112 402.667C67.7538 400.827 68.5995 399.137 69.8414 397.811C71.0832 396.485 72.6654 395.582 74.3879 395.216C76.1104 394.85 77.8959 395.037 79.5184 395.755C81.141 396.473 82.5278 397.689 83.5035 399.248C84.4792 400.808 85 402.641 85 404.517C84.9973 407.031 84.0609 409.441 82.3962 411.219C80.7315 412.997 78.4745 413.997 76.1203 414ZM76.1203 395.824C74.5104 395.824 72.9367 396.334 71.5981 397.289C70.2595 398.244 69.2162 399.602 68.6002 401.19C67.9841 402.778 67.8229 404.526 68.1369 406.213C68.451 407.899 69.2263 409.448 70.3646 410.664C71.503 411.879 72.9534 412.707 74.5323 413.043C76.1113 413.378 77.7479 413.206 79.2352 412.548C80.7226 411.89 81.9938 410.776 82.8882 409.346C83.7826 407.917 84.26 406.236 84.26 404.517C84.2576 402.212 83.3992 400.002 81.8733 398.373C80.3473 396.743 78.2783 395.826 76.1203 395.824Z" fill="#F2F2F2"/>
<path d="M635.416 280.295L630.613 278.201L627.319 253.272H583.442L579.87 278.099L575.573 280.324C575.368 280.43 575.203 280.605 575.105 280.821C575.008 281.036 574.984 281.28 575.036 281.511C575.089 281.743 575.216 281.949 575.396 282.097C575.577 282.245 575.8 282.325 576.03 282.325H635.021C635.256 282.325 635.484 282.241 635.667 282.086C635.849 281.932 635.974 281.717 636.021 281.478C636.067 281.239 636.033 280.99 635.923 280.774C635.812 280.559 635.634 280.389 635.416 280.295Z" fill="#E6E6E6"/>
<path d="M713.389 256.588H497.853C496.722 256.586 495.639 256.119 494.84 255.29C494.041 254.461 493.592 253.338 493.592 252.167V220.699H717.649V252.167C717.649 253.338 717.201 254.461 716.402 255.29C715.603 256.119 714.52 256.586 713.389 256.588Z" fill="#CCCCCC"/>
<path d="M717.875 235.572H493.396V100.925C493.397 99.5122 493.94 98.1575 494.905 97.1584C495.87 96.1592 497.179 95.5972 498.543 95.5956H712.727C714.092 95.5972 715.4 96.1593 716.365 97.1584C717.33 98.1576 717.873 99.5122 717.875 100.925V235.572Z" fill="#3F3D56"/>
<path d="M704.467 225.799H506.803C505.751 225.798 504.742 225.364 503.998 224.594C503.254 223.824 502.836 222.78 502.834 221.69V109.477C502.836 108.388 503.254 107.343 503.998 106.573C504.742 105.803 505.751 105.369 506.803 105.368H704.467C705.52 105.369 706.528 105.803 707.272 106.573C708.016 107.343 708.435 108.388 708.436 109.477V221.69C708.435 222.78 708.016 223.824 707.272 224.594C706.528 225.364 705.52 225.798 704.467 225.799Z" fill="white"/>
<path d="M701.337 283.365H509.934C509.801 283.365 509.673 283.31 509.579 283.213C509.484 283.115 509.431 282.983 509.431 282.845C509.431 282.707 509.484 282.575 509.579 282.477C509.673 282.38 509.801 282.325 509.934 282.325H701.337C701.47 282.325 701.598 282.38 701.692 282.477C701.786 282.575 701.839 282.707 701.839 282.845C701.839 282.983 701.786 283.115 701.692 283.213C701.598 283.31 701.47 283.365 701.337 283.365Z" fill="#CCCCCC"/>
<path d="M685.898 211.857H525.373C525.239 211.857 525.112 211.802 525.017 211.704C524.923 211.607 524.87 211.474 524.87 211.336V131.676C524.87 131.538 524.923 131.405 525.017 131.308C525.112 131.21 525.239 131.156 525.373 131.156C525.506 131.156 525.634 131.21 525.728 131.308C525.822 131.405 525.875 131.538 525.875 131.676V210.816H685.898C686.031 210.816 686.159 210.871 686.253 210.969C686.347 211.066 686.4 211.199 686.4 211.336C686.4 211.474 686.347 211.607 686.253 211.704C686.159 211.802 686.031 211.857 685.898 211.857Z" fill="#3F3D56"/>
<path d="M559.67 206.135H545.069C544.674 206.135 544.295 205.972 544.016 205.682C543.736 205.393 543.579 205 543.578 204.591V183.753C543.579 183.343 543.736 182.951 544.016 182.661C544.295 182.372 544.674 182.209 545.069 182.209H559.67C560.065 182.209 560.444 182.372 560.724 182.661C561.003 182.951 561.161 183.343 561.161 183.753V204.591C561.161 205 561.003 205.393 560.724 205.682C560.444 205.972 560.065 206.135 559.67 206.135Z" fill="#6C63FF"/>
<path d="M586.295 206.135H571.695C571.3 206.135 570.921 205.972 570.641 205.682C570.362 205.393 570.204 205 570.204 204.591V163.987C570.204 163.578 570.362 163.186 570.641 162.896C570.921 162.607 571.3 162.444 571.695 162.443H586.295C586.691 162.444 587.07 162.607 587.349 162.896C587.629 163.186 587.786 163.578 587.787 163.987V204.591C587.786 205 587.629 205.393 587.349 205.682C587.07 205.972 586.691 206.135 586.295 206.135Z" fill="#6C63FF"/>
<path d="M612.921 206.135H598.321C597.925 206.135 597.546 205.972 597.267 205.682C596.987 205.393 596.83 205 596.829 204.591V183.753C596.83 183.343 596.987 182.951 597.267 182.661C597.546 182.372 597.925 182.209 598.321 182.209H612.921C613.316 182.209 613.695 182.372 613.975 182.661C614.255 182.951 614.412 183.343 614.412 183.753V204.591C614.412 205 614.255 205.393 613.975 205.682C613.695 205.972 613.316 206.135 612.921 206.135Z" fill="#6C63FF"/>
<path d="M639.547 206.135H624.946C624.56 206.144 624.186 205.993 623.907 205.717C623.627 205.441 623.465 205.061 623.455 204.661V156.115C623.465 155.715 623.627 155.336 623.907 155.059C624.186 154.783 624.56 154.633 624.946 154.641H639.547C639.933 154.633 640.307 154.783 640.586 155.059C640.866 155.336 641.028 155.715 641.038 156.115V204.661C641.028 205.061 640.866 205.441 640.586 205.717C640.307 205.993 639.933 206.144 639.547 206.135Z" fill="#6C63FF"/>
<path d="M666.172 206.135H651.572C651.176 206.135 650.797 205.972 650.518 205.682C650.238 205.393 650.081 205 650.081 204.591V142.142C650.081 141.732 650.238 141.34 650.518 141.05C650.797 140.761 651.176 140.598 651.572 140.598H666.172C666.568 140.598 666.947 140.761 667.226 141.05C667.506 141.34 667.663 141.732 667.664 142.142V204.591C667.663 205 667.506 205.393 667.226 205.682C666.947 205.972 666.568 206.135 666.172 206.135Z" fill="#6C63FF"/>
<path d="M552.37 175.967C554.034 175.967 555.384 174.57 555.384 172.846C555.384 171.123 554.034 169.725 552.37 169.725C550.705 169.725 549.355 171.123 549.355 172.846C549.355 174.57 550.705 175.967 552.37 175.967Z" fill="#3F3D56"/>
<path d="M578.995 155.682C580.66 155.682 582.01 154.284 582.01 152.561C582.01 150.837 580.66 149.44 578.995 149.44C577.331 149.44 575.981 150.837 575.981 152.561C575.981 154.284 577.331 155.682 578.995 155.682Z" fill="#3F3D56"/>
<path d="M605.621 175.967C607.286 175.967 608.635 174.57 608.635 172.846C608.635 171.123 607.286 169.725 605.621 169.725C603.956 169.725 602.607 171.123 602.607 172.846C602.607 174.57 603.956 175.967 605.621 175.967Z" fill="#3F3D56"/>
<path d="M632.247 145.799C633.911 145.799 635.261 144.402 635.261 142.678C635.261 140.955 633.911 139.557 632.247 139.557C630.582 139.557 629.232 140.955 629.232 142.678C629.232 144.402 630.582 145.799 632.247 145.799Z" fill="#3F3D56"/>
<path d="M658.872 134.356C660.537 134.356 661.886 132.959 661.886 131.235C661.886 129.512 660.537 128.114 658.872 128.114C657.207 128.114 655.858 129.512 655.858 131.235C655.858 132.959 657.207 134.356 658.872 134.356Z" fill="#3F3D56"/>
<path d="M605.684 173.545L578.995 152.848L552.671 173.262L552.068 172.43L578.995 151.548L605.558 172.147L631.953 142.24L632.059 142.196L658.684 131.089L659.06 132.053L632.54 143.116L605.684 173.545Z" fill="#3F3D56"/>
<path d="M41.1552 52C38.8125 52 36.5224 51.3411 34.5745 50.1067C32.6266 48.8723 31.1085 47.1178 30.212 45.0651C29.3155 43.0124 29.0809 40.7536 29.5379 38.5744C29.995 36.3952 31.1231 34.3935 32.7796 32.8224C34.4361 31.2513 36.5467 30.1814 38.8444 29.748C41.142 29.3145 43.5236 29.537 45.688 30.3872C47.8523 31.2375 49.7022 32.6774 51.0038 34.5248C52.3053 36.3722 53 38.5442 53 40.766C52.9964 43.7444 51.7473 46.5999 49.5268 48.7059C47.3062 50.812 44.2955 51.9966 41.1552 52V52ZM41.1552 30.3642C38.986 30.3642 36.8656 30.9743 35.062 32.1173C33.2584 33.2602 31.8527 34.8848 31.0226 36.7854C30.1925 38.6861 29.9753 40.7776 30.3985 42.7953C30.8216 44.8131 31.8662 46.6665 33.4 48.1212C34.9338 49.576 36.8881 50.5666 39.0155 50.968C41.143 51.3693 43.3482 51.1634 45.3522 50.3761C47.3563 49.5888 49.0691 48.2555 50.2743 46.545C51.4794 44.8344 52.1226 42.8233 52.1226 40.766C52.1193 38.0083 50.9628 35.3643 48.9067 33.4143C46.8506 31.4642 44.0629 30.3673 41.1552 30.3642V30.3642Z" fill="#F2F2F2"/>
<path d="M487.851 343C485.111 343 482.433 342.208 480.156 340.725C477.878 339.241 476.103 337.133 475.054 334.666C474.006 332.199 473.732 329.485 474.266 326.866C474.801 324.248 476.12 321.842 478.057 319.954C479.994 318.066 482.462 316.78 485.149 316.259C487.835 315.739 490.62 316.006 493.151 317.028C495.682 318.049 497.845 319.78 499.367 322C500.889 324.22 501.702 326.83 501.702 329.5C501.697 333.079 500.237 336.511 497.64 339.041C495.044 341.572 491.523 342.996 487.851 343V343ZM487.851 317C485.314 317 482.835 317.733 480.726 319.107C478.617 320.48 476.973 322.432 476.002 324.716C475.032 327.001 474.778 329.514 475.272 331.939C475.767 334.363 476.989 336.591 478.782 338.339C480.576 340.087 482.861 341.277 485.349 341.76C487.837 342.242 490.415 341.995 492.759 341.048C495.102 340.102 497.105 338.5 498.514 336.445C499.923 334.389 500.676 331.972 500.676 329.5C500.672 326.186 499.319 323.009 496.915 320.665C494.511 318.322 491.251 317.004 487.851 317V317Z" fill="#F2F2F2"/>
<path d="M291.33 275.92C289.615 275.92 287.939 275.392 286.513 274.404C285.088 273.416 283.976 272.011 283.32 270.368C282.664 268.725 282.492 266.916 282.827 265.172C283.161 263.427 283.987 261.825 285.2 260.567C286.412 259.309 287.957 258.452 289.639 258.105C291.32 257.758 293.064 257.936 294.648 258.617C296.232 259.298 297.586 260.451 298.539 261.93C299.492 263.409 300 265.147 300 266.926C299.997 269.311 299.083 271.597 297.458 273.283C295.832 274.969 293.629 275.917 291.33 275.92ZM291.33 258.599C289.742 258.599 288.19 259.087 286.87 260.002C285.55 260.917 284.521 262.218 283.913 263.739C283.306 265.261 283.147 266.935 283.457 268.551C283.766 270.166 284.531 271.65 285.654 272.815C286.776 273.979 288.207 274.772 289.764 275.094C291.321 275.415 292.935 275.25 294.402 274.62C295.869 273.989 297.123 272.922 298.005 271.553C298.887 270.183 299.358 268.573 299.358 266.926C299.355 264.718 298.509 262.602 297.004 261.041C295.499 259.479 293.458 258.601 291.33 258.599Z" fill="#F2F2F2"/>
<path d="M737.33 79.3727C735.615 79.3727 733.939 78.8453 732.513 77.857C731.088 76.8688 729.976 75.4642 729.32 73.8208C728.664 72.1774 728.492 70.3691 728.827 68.6245C729.161 66.8799 729.987 65.2774 731.2 64.0196C732.412 62.7618 733.957 61.9053 735.639 61.5583C737.32 61.2112 739.064 61.3893 740.648 62.07C742.232 62.7508 743.586 63.9035 744.539 65.3825C745.492 66.8615 746 68.6003 746 70.3791C745.997 72.7635 745.083 75.0495 743.458 76.7356C741.832 78.4216 739.629 79.37 737.33 79.3727ZM737.33 62.0516C735.742 62.0516 734.19 62.54 732.87 63.4551C731.55 64.3701 730.521 65.6707 729.913 67.1923C729.306 68.714 729.147 70.3883 729.457 72.0037C729.766 73.6191 730.531 75.1029 731.654 76.2675C732.776 77.4321 734.207 78.2252 735.764 78.5465C737.321 78.8679 738.935 78.7029 740.402 78.0727C741.869 77.4424 743.123 76.375 744.005 75.0056C744.887 73.6361 745.358 72.0261 745.358 70.3791C745.355 68.1713 744.509 66.0546 743.004 64.4934C741.499 62.9323 739.458 62.0541 737.33 62.0516Z" fill="#F2F2F2"/>
<path d="M162.62 205.607C160.172 205.607 157.778 204.89 155.742 203.547C153.707 202.204 152.12 200.295 151.183 198.061C150.246 195.828 150.001 193.37 150.478 190.999C150.956 188.628 152.135 186.449 153.866 184.74C155.598 183.03 157.804 181.866 160.205 181.394C162.607 180.923 165.096 181.165 167.358 182.09C169.62 183.015 171.553 184.582 172.914 186.592C174.274 188.602 175 190.966 175 193.383C174.996 196.624 173.691 199.731 171.37 202.023C169.049 204.315 165.902 205.604 162.62 205.607V205.607ZM162.62 182.065C160.353 182.065 158.137 182.729 156.252 183.973C154.367 185.216 152.898 186.984 152.03 189.052C151.163 191.12 150.936 193.396 151.378 195.592C151.82 197.787 152.912 199.804 154.515 201.387C156.118 202.97 158.16 204.048 160.384 204.484C162.608 204.921 164.912 204.697 167.007 203.84C169.101 202.984 170.892 201.533 172.151 199.672C173.411 197.81 174.083 195.622 174.083 193.383C174.08 190.383 172.871 187.506 170.722 185.384C168.573 183.262 165.659 182.068 162.62 182.065V182.065Z" fill="#F2F2F2"/>
<path d="M76.1203 267.477C74.364 267.477 72.6472 266.918 71.187 265.869C69.7267 264.82 68.5886 263.329 67.9165 261.585C67.2444 259.841 67.0686 257.922 67.4112 256.07C67.7538 254.219 68.5995 252.518 69.8414 251.183C71.0832 249.848 72.6654 248.939 74.3879 248.571C76.1104 248.203 77.8958 248.392 79.5184 249.114C81.1409 249.837 82.5278 251.06 83.5035 252.63C84.4792 254.199 85 256.045 85 257.933C84.9973 260.463 84.0609 262.889 82.3962 264.679C80.7315 266.468 78.4745 267.475 76.1203 267.477ZM76.1203 249.095C74.4941 249.095 72.9045 249.613 71.5524 250.584C70.2003 251.555 69.1465 252.936 68.5242 254.55C67.9019 256.165 67.7391 257.942 68.0563 259.657C68.3736 261.371 69.1566 262.946 70.3065 264.182C71.4563 265.418 72.9214 266.26 74.5163 266.601C76.1112 266.942 77.7643 266.767 79.2667 266.098C80.7691 265.429 82.0532 264.296 82.9566 262.843C83.86 261.389 84.3422 259.681 84.3422 257.933C84.3398 255.589 83.4728 253.343 81.9314 251.686C80.39 250.029 78.3001 249.097 76.1203 249.095Z" fill="#F2F2F2"/>
</svg>
