<svg width="660" height="541" viewBox="0 0 660 541" fill="none" xmlns="http://www.w3.org/2000/svg">
<rect width="659" height="540" transform="translate(0.5 0.88324)" fill="white"/>
<path d="M330 71.2999C214.77 71.2999 121.25 160.713 121.25 270.883C121.25 381.053 214.77 470.467 330 470.467C445.23 470.467 538.75 381.053 538.75 270.883C538.75 160.713 445.23 71.2999 330 71.2999ZM330 430.55C237.941 430.55 163 358.9 163 270.883C163 182.867 237.941 111.217 330 111.217C422.059 111.217 497 182.867 497 270.883C497 358.9 422.059 430.55 330 430.55ZM336.471 253.719C299.523 244.738 287.624 234.958 287.624 220.389C287.624 203.624 304.115 191.848 331.461 191.848C360.269 191.848 371.124 205.021 371.959 224.58H407.655C406.611 197.836 389.494 173.287 355.676 165.304V131.175H307.037V164.905C275.516 171.291 250.258 190.85 250.258 220.987C250.258 256.713 281.361 274.675 326.66 285.054C367.366 294.235 375.508 308.006 375.508 322.376C375.508 332.954 367.366 350.118 331.67 350.118C298.27 350.118 285.119 335.748 283.24 317.386H247.335C249.422 351.315 275.725 370.475 307.037 376.662V410.592H355.885V377.261C387.615 371.473 412.665 354.11 412.874 321.977C412.665 278.068 373.211 262.9 336.471 253.719V253.719Z" fill="#DE6980"/>
</svg>
