<svg width="660" height="540" viewBox="0 0 660 540" fill="none" xmlns="http://www.w3.org/2000/svg">
<rect width="659" height="540" transform="translate(0.5)" fill="white"/>
<rect width="505" height="508" transform="translate(106)" fill="white"/>
<path d="M253.292 190.5H148.083V148.167H253.292V190.5ZM253.292 254H148.083V296.333H253.292V254ZM539.248 402.167L458.659 321.098C441.825 332.105 422.046 338.667 400.584 338.667C342.509 338.667 295.375 291.253 295.375 232.833C295.375 174.413 342.509 127 400.584 127C458.659 127 505.792 174.413 505.792 232.833C505.792 254.423 499.269 274.32 488.327 291.042L568.917 372.322L539.248 402.167ZM463.709 232.833C463.709 197.908 435.302 169.333 400.584 169.333C365.865 169.333 337.459 197.908 337.459 232.833C337.459 267.758 365.865 296.333 400.584 296.333C435.302 296.333 463.709 267.758 463.709 232.833ZM148.083 402.167H358.5V359.833H148.083V402.167Z" fill="#DE6980"/>
</svg>
