<svg width="817" height="216" viewBox="0 0 817 216" fill="none" xmlns="http://www.w3.org/2000/svg">
<g clip-path="url(#clip0)">
<rect width="817" height="216" fill="#0A043C"/>
<path d="M57.3174 209.252V130.808C57.3174 130.325 57.7808 129.862 58.6058 129.52C59.4307 129.179 60.5496 128.987 61.7162 128.987H81.3465C82.5131 128.987 83.632 129.179 84.4569 129.52C85.2818 129.862 85.7453 130.325 85.7453 130.808V130.808V209.456L57.3174 209.252Z" fill="url(#paint0_linear)"/>
<path d="M20.0625 209.342V165.693C20.0625 165.134 22.032 164.68 24.4613 164.68H44.0916C46.5209 164.68 48.4904 165.134 48.4904 165.693V209.456L20.0625 209.342Z" fill="url(#paint1_linear)"/>
<path d="M94.5723 209.189V106.589C94.5723 105.274 96.5418 104.207 98.9711 104.207H118.601C121.031 104.207 123 105.274 123 106.589V209.456L94.5723 209.189Z" fill="url(#paint2_linear)"/>
<path d="M582.203 205.163C581.367 203.576 579.512 203.049 578.059 203.986C576.607 204.922 576.106 206.967 576.942 208.554C577.778 210.141 579.633 210.668 581.086 209.731C582.538 208.795 583.039 206.75 582.203 205.163Z" fill="#0D0647"/>
<path d="M551.661 189.941C550.825 188.354 548.97 187.827 547.517 188.764C546.065 189.7 545.564 191.746 546.4 193.332C547.236 194.919 549.091 195.446 550.544 194.509C551.996 193.573 552.497 191.528 551.661 189.941Z" fill="#0D0647"/>
<path d="M554.875 153.412C554.039 151.825 552.184 151.298 550.731 152.235C549.279 153.171 548.778 155.217 549.614 156.803C550.45 158.39 552.305 158.917 553.757 157.98C555.21 157.044 555.71 154.999 554.875 153.412Z" fill="#0D0647"/>
<path d="M516.109 143.379C515.274 141.792 513.419 141.265 511.966 142.201C510.513 143.138 510.013 145.183 510.848 146.77C511.684 148.356 513.539 148.883 514.992 147.947C516.444 147.01 516.945 144.965 516.109 143.379Z" fill="#0D0647"/>
<path d="M492.925 123.514C492.089 121.927 490.234 121.4 488.781 122.337C487.328 123.273 486.828 125.318 487.664 126.905C488.499 128.492 490.354 129.019 491.807 128.082C493.26 127.146 493.76 125.101 492.925 123.514Z" fill="#0D0647"/>
<path d="M553.195 154.201L549.081 191.236L579.764 205.401L579.361 206.437L547.975 191.948L552.07 155.088L513.273 146.055L513.182 145.978L490.266 126.425L490.897 125.534L513.721 145.01L553.195 154.201Z" fill="#0D0647"/>
<path d="M11.6333 43.9008C13.2306 43.9008 14.5255 42.9684 14.5255 41.8181C14.5255 40.6678 13.2306 39.7354 11.6333 39.7354C10.0361 39.7354 8.74121 40.6678 8.74121 41.8181C8.74121 42.9684 10.0361 43.9008 11.6333 43.9008Z" fill="#0D0647"/>
<path d="M37.1803 30.363C38.7776 30.363 40.0725 29.4306 40.0725 28.2803C40.0725 27.13 38.7776 26.1975 37.1803 26.1975C35.583 26.1975 34.2881 27.13 34.2881 28.2803C34.2881 29.4306 35.583 30.363 37.1803 30.363Z" fill="#0D0647"/>
<path d="M62.7272 43.9008C64.3245 43.9008 65.6194 42.9684 65.6194 41.8181C65.6194 40.6678 64.3245 39.7354 62.7272 39.7354C61.1298 39.7354 59.835 40.6678 59.835 41.8181C59.835 42.9684 61.1298 43.9008 62.7272 43.9008Z" fill="#0D0647"/>
<path d="M88.2769 23.7677C89.8741 23.7677 91.1689 22.8352 91.1689 21.685C91.1689 20.5347 89.8741 19.6022 88.2769 19.6022C86.6796 19.6022 85.3848 20.5347 85.3848 21.685C85.3848 22.8352 86.6796 23.7677 88.2769 23.7677Z" fill="#0D0647"/>
<path d="M113.822 16.131C115.419 16.131 116.714 15.1985 116.714 14.0482C116.714 12.898 115.419 11.9655 113.822 11.9655C112.225 11.9655 110.93 12.898 110.93 14.0482C110.93 15.1985 112.225 16.131 113.822 16.131Z" fill="#0D0647"/>
<path d="M62.7887 42.2847L37.1805 28.4719L11.9222 42.0958L11.3438 41.5404L37.1805 27.6045L62.6673 41.3516L87.9935 21.3927L88.0952 21.3628L113.643 13.9503L114.003 14.5943L88.5575 21.9772L62.7887 42.2847Z" fill="#0D0647"/>
<path d="M282.699 128.884C283.425 127.326 282.846 125.518 281.404 124.846C279.963 124.174 278.205 124.892 277.479 126.45C276.752 128.008 277.332 129.816 278.773 130.488C280.215 131.161 281.972 130.442 282.699 128.884Z" fill="#0D0647"/>
<path d="M277.355 96.0519C278.082 94.4937 277.502 92.6856 276.061 92.0135C274.619 91.3413 272.862 92.0596 272.135 93.6178C271.408 95.1759 271.988 96.984 273.429 97.6562C274.871 98.3283 276.628 97.6101 277.355 96.0519Z" fill="#0D0647"/>
<path d="M305.941 79.0414C306.667 77.4832 306.088 75.6752 304.646 75.003C303.205 74.3308 301.447 75.0491 300.721 76.6073C299.994 78.1655 300.574 79.9735 302.015 80.6457C303.457 81.3179 305.214 80.5996 305.941 79.0414Z" fill="#0D0647"/>
<path d="M292.333 42.3534C293.06 40.7953 292.48 38.9873 291.039 38.3152C289.598 37.643 287.84 38.3612 287.113 39.9193C286.387 41.4774 286.966 43.2855 288.408 43.9576C289.849 44.6298 291.607 43.9116 292.333 42.3534Z" fill="#0D0647"/>
<path d="M294.383 12.9707C295.11 11.4125 294.53 9.60445 293.089 8.93228C291.647 8.26012 289.89 8.97838 289.163 10.5366C288.437 12.0948 289.016 13.9028 290.458 14.575C291.899 15.2471 293.657 14.5289 294.383 12.9707Z" fill="#0D0647"/>
<path d="M303.944 78.0378L274.986 94.9472L280.569 127.548L279.61 127.788L273.899 94.4403L302.719 77.6111L289.228 41.2422L289.237 41.1255L291.569 11.8723L292.54 11.8969L290.217 41.0336L303.944 78.0378Z" fill="#0D0647"/>
<path d="M660.735 91.3533C662.745 90.9625 664.109 89.2796 663.782 87.5946C663.454 85.9095 661.559 84.8603 659.549 85.2511C657.538 85.6419 656.174 87.3247 656.501 89.0098C656.829 90.6949 658.724 91.7441 660.735 91.3533Z" fill="#0D0647"/>
<path d="M689.036 65.2701C691.046 64.8793 692.41 63.1965 692.083 61.5114C691.755 59.8263 689.86 58.7771 687.849 59.1679C685.839 59.5587 684.475 61.2415 684.802 62.9266C685.13 64.6117 687.025 65.6609 689.036 65.2701Z" fill="#0D0647"/>
<path d="M725.047 78.8516C727.058 78.4608 728.422 76.778 728.095 75.0929C727.767 73.4078 725.872 72.3586 723.861 72.7494C721.851 73.1402 720.486 74.8231 720.814 76.5082C721.141 78.1932 723.037 79.2424 725.047 78.8516Z" fill="#0D0647"/>
<path d="M751.471 43.1069C753.481 42.7161 754.846 41.0333 754.518 39.3482C754.191 37.6631 752.295 36.6139 750.285 37.0047C748.274 37.3955 746.91 39.0783 747.238 40.7634C747.565 42.4484 749.46 43.4977 751.471 43.1069Z" fill="#0D0647"/>
<path d="M781.452 25.6693C783.462 25.2785 784.826 23.5956 784.499 21.9105C784.171 20.2255 782.276 19.1763 780.265 19.5671C778.255 19.9579 776.891 21.6407 777.218 23.3258C777.546 25.0109 779.441 26.0601 781.452 25.6693Z" fill="#0D0647"/>
<path d="M724.663 76.4692L688.496 62.4998L660.583 88.6379L659.697 87.9658L688.249 61.229L724.244 75.1321L750.439 39.697L750.558 39.6283L780.604 22.5189L781.241 23.374L751.315 40.4153L724.663 76.4692Z" fill="#0D0647"/>
</g>
<defs>
<linearGradient id="paint0_linear" x1="71.5313" y1="128.987" x2="71.5313" y2="209.456" gradientUnits="userSpaceOnUse">
<stop stop-color="#0D0647"/>
<stop offset="1" stop-color="#0D0647" stop-opacity="0"/>
</linearGradient>
<linearGradient id="paint1_linear" x1="34.2765" y1="164.68" x2="34.2765" y2="209.456" gradientUnits="userSpaceOnUse">
<stop stop-color="#0D0647"/>
<stop offset="1" stop-color="#0D0647" stop-opacity="0"/>
</linearGradient>
<linearGradient id="paint2_linear" x1="108.786" y1="104.207" x2="108.786" y2="209.456" gradientUnits="userSpaceOnUse">
<stop stop-color="#0D0647"/>
<stop offset="1" stop-color="#0D0647" stop-opacity="0"/>
</linearGradient>
<clipPath id="clip0">
<rect width="817" height="216" fill="white"/>
</clipPath>
</defs>
</svg>
