<svg width="882" height="572" viewBox="0 0 882 572" fill="none" xmlns="http://www.w3.org/2000/svg">
<rect width="882" height="572" fill="#0A043C"/>
<path d="M790.825 522.33H33.1115C32.4826 522.33 31.8794 521.988 31.4347 521.378C30.99 520.769 30.7402 519.942 30.7402 519.08V21.2756C30.7402 20.4135 30.99 19.5868 31.4347 18.9773C31.8794 18.3677 32.4826 18.0252 33.1115 18.0252C33.7404 18.0252 34.3436 18.3677 34.7883 18.9773C35.233 19.5868 35.4828 20.4135 35.4828 21.2756V515.83H790.825C791.454 515.83 792.057 516.172 792.502 516.782C792.946 517.391 793.196 518.218 793.196 519.08C793.196 519.942 792.946 520.769 792.502 521.378C792.057 521.988 791.454 522.33 790.825 522.33Z" fill="#86564C"/>
<path d="M173.648 553.973H82.0369C79.5562 553.97 77.1779 552.976 75.4237 551.209C73.6695 549.443 72.6827 547.047 72.6797 544.549V417.352C72.6827 414.853 73.6695 412.458 75.4237 410.691C77.1779 408.925 79.5562 407.931 82.0369 407.928H173.648C176.129 407.931 178.507 408.925 180.261 410.691C182.015 412.458 183.002 414.853 183.005 417.352V544.549C183.002 547.047 182.015 549.443 180.261 551.209C178.507 552.976 176.129 553.97 173.648 553.973V553.973Z" fill="url(#paint0_linear)"/>
<path d="M340.714 553.973H249.102C246.622 553.97 244.243 552.976 242.489 551.209C240.735 549.443 239.748 547.047 239.745 544.549V296.706C239.748 294.208 240.735 291.812 242.489 290.046C244.243 288.279 246.622 287.285 249.102 287.283H340.714C343.195 287.285 345.573 288.279 347.327 290.046C349.081 291.812 350.068 294.208 350.071 296.706V544.549C350.068 547.047 349.081 549.443 347.327 551.209C345.573 552.976 343.195 553.97 340.714 553.973V553.973Z" fill="url(#paint1_linear)"/>
<path d="M507.776 553.973H416.165C413.684 553.97 411.306 552.976 409.552 551.209C407.797 549.443 406.811 547.047 406.808 544.549V417.352C406.811 414.853 407.797 412.458 409.552 410.691C411.306 408.925 413.684 407.931 416.165 407.928H507.776C510.257 407.931 512.635 408.925 514.389 410.691C516.143 412.458 517.13 414.853 517.133 417.352V544.549C517.13 547.047 516.143 549.443 514.389 551.209C512.635 552.976 510.257 553.97 507.776 553.973V553.973Z" fill="url(#paint2_linear)"/>
<path d="M674.841 553.973H583.23C580.806 554.025 578.46 553.108 576.706 551.421C574.952 549.735 573.933 547.417 573.873 544.976V248.656C573.933 246.215 574.952 243.897 576.706 242.211C578.46 240.524 580.806 239.607 583.23 239.659H674.841C677.265 239.607 679.611 240.524 681.365 242.211C683.119 243.897 684.138 246.215 684.198 248.656V544.976C684.138 547.417 683.119 549.735 681.365 551.421C679.611 553.108 677.265 554.025 674.841 553.973V553.973Z" fill="url(#paint3_linear)"/>
<path d="M841.903 553.973H750.292C747.811 553.97 745.433 552.976 743.678 551.21C741.924 549.443 740.938 547.047 740.935 544.549V163.361C740.938 160.863 741.924 158.467 743.678 156.701C745.433 154.934 747.811 153.94 750.292 153.938H841.903C844.384 153.94 846.762 154.934 848.516 156.701C850.271 158.467 851.257 160.863 851.26 163.361V544.549C851.257 547.047 850.271 549.443 848.516 551.21C846.762 552.976 844.384 553.97 841.903 553.973V553.973Z" fill="url(#paint4_linear)"/>
<path d="M104.183 317.232C114.881 317.232 123.554 309.33 123.554 299.581C123.554 289.833 114.881 281.93 104.183 281.93C93.485 281.93 84.8125 289.833 84.8125 299.581C84.8125 309.33 93.485 317.232 104.183 317.232Z" fill="#180D79"/>
<path d="M275.293 202.501C285.991 202.501 294.663 194.598 294.663 184.85C294.663 175.101 285.991 167.199 275.293 167.199C264.594 167.199 255.922 175.101 255.922 184.85C255.922 194.598 264.594 202.501 275.293 202.501Z" fill="#180D79"/>
<path d="M446.397 317.232C457.095 317.232 465.768 309.33 465.768 299.581C465.768 289.833 457.095 281.93 446.397 281.93C435.699 281.93 427.026 289.833 427.026 299.581C427.026 309.33 435.699 317.232 446.397 317.232Z" fill="#180D79"/>
<path d="M617.505 146.606C628.203 146.606 636.876 138.704 636.876 128.955C636.876 119.207 628.203 111.304 617.505 111.304C606.807 111.304 598.135 119.207 598.135 128.955C598.135 138.704 606.807 146.606 617.505 146.606Z" fill="#180D79"/>
<path d="M788.614 81.8857C799.312 81.8857 807.985 73.9831 807.985 64.2347C807.985 54.4864 799.312 46.5837 788.614 46.5837C777.916 46.5837 769.243 54.4864 769.243 64.2347C769.243 73.9831 777.916 81.8857 788.614 81.8857Z" fill="#180D79"/>
<path d="M446.809 303.535L275.294 186.474L106.123 301.935L102.249 297.228L275.294 179.122L445.995 295.628L615.622 126.478L616.303 126.225L787.411 63.4053L789.826 68.8624L619.399 131.432L446.809 303.535Z" fill="#180D79"/>
<defs>
<linearGradient id="paint0_linear" x1="127.842" y1="407.928" x2="127.842" y2="553.973" gradientUnits="userSpaceOnUse">
<stop stop-color="#DE6980"/>
<stop offset="1" stop-color="#DE6980" stop-opacity="0"/>
</linearGradient>
<linearGradient id="paint1_linear" x1="294.908" y1="287.283" x2="294.908" y2="553.973" gradientUnits="userSpaceOnUse">
<stop stop-color="#DE6980"/>
<stop offset="1" stop-color="#DE6980" stop-opacity="0"/>
</linearGradient>
<linearGradient id="paint2_linear" x1="461.97" y1="407.928" x2="461.97" y2="553.973" gradientUnits="userSpaceOnUse">
<stop stop-color="#DE6980"/>
<stop offset="1" stop-color="#DE6980" stop-opacity="0"/>
</linearGradient>
<linearGradient id="paint3_linear" x1="629.036" y1="239.657" x2="629.036" y2="553.975" gradientUnits="userSpaceOnUse">
<stop stop-color="#DE6980"/>
<stop offset="1" stop-color="#DE6980" stop-opacity="0"/>
</linearGradient>
<linearGradient id="paint4_linear" x1="796.097" y1="153.938" x2="796.097" y2="553.973" gradientUnits="userSpaceOnUse">
<stop stop-color="#DE6980"/>
<stop offset="1" stop-color="#DE6980" stop-opacity="0"/>
</linearGradient>
</defs>
</svg>
