<svg width="1160" height="898" viewBox="0 0 1160 898" fill="none" xmlns="http://www.w3.org/2000/svg">
<rect width="1160" height="898" fill="#0A043C"/>
<path d="M1026.92 822.418H43.5073C42.6911 822.418 41.9082 821.903 41.3311 820.987C40.7539 820.07 40.4297 818.827 40.4297 817.53V68.8882C40.4297 67.5918 40.7539 66.3485 41.3311 65.4318C41.9082 64.5151 42.6911 64 43.5073 64C44.3236 64 45.1063 64.5151 45.6835 65.4318C46.2607 66.3485 46.585 67.5918 46.585 68.8882V812.642H1026.92C1027.74 812.642 1028.52 813.157 1029.1 814.074C1029.68 814.99 1030 816.234 1030 817.53C1030 818.827 1029.68 820.07 1029.1 820.987C1028.52 821.903 1027.74 822.418 1026.92 822.418Z" fill="#86564C"/>
<path d="M134.49 466.532C146.154 464.331 154.199 455.505 152.46 446.818C150.721 438.132 139.855 432.874 128.191 435.075C116.528 437.276 108.482 446.102 110.222 454.788C111.961 463.475 122.827 468.732 134.49 466.532Z" fill="#180D79"/>
<path d="M300.574 329.096C312.237 326.896 320.283 318.07 318.543 309.383C316.804 300.697 305.938 295.439 294.275 297.64C282.611 299.841 274.565 308.667 276.305 317.353C278.044 326.04 288.91 331.297 300.574 329.096Z" fill="#180D79"/>
<path d="M507.593 396.131C519.257 393.93 527.302 385.104 525.563 376.418C523.824 367.731 512.958 362.473 501.294 364.674C489.63 366.875 481.585 375.701 483.324 384.388C485.064 393.074 495.929 398.332 507.593 396.131Z" fill="#180D79"/>
<path d="M663.7 208.89C675.364 206.689 683.409 197.863 681.67 189.177C679.93 180.49 669.065 175.232 657.401 177.433C645.737 179.634 637.692 188.46 639.432 197.146C641.171 205.833 652.037 211.091 663.7 208.89Z" fill="#180D79"/>
<path d="M838.708 116.019C850.372 113.818 858.418 104.992 856.678 96.3057C854.939 87.6192 844.073 82.3615 832.409 84.5623C820.745 86.7632 812.7 95.5891 814.44 104.276C816.179 112.962 827.045 118.22 838.708 116.019Z" fill="#180D79"/>
<path d="M505.598 383.841L297.714 314.815L133.875 452.501L128.811 449.104L296.402 308.264L503.3 376.962L658.056 191.342L658.753 190.976L834.097 99.7988L837.704 104.165L663.058 194.979L505.598 383.841Z" fill="#180D79"/>
<path d="M926.854 827.44L913.188 827.439L906.687 782.539H926.856L926.854 827.44Z" fill="#9E616A"/>
<path d="M930.339 838.725L886.273 838.723V838.248C886.274 834.374 888.081 830.658 891.297 827.918C894.514 825.178 898.876 823.639 903.425 823.639H903.426L930.34 823.64L930.339 838.725Z" fill="#444444"/>
<path d="M874.462 827.44L860.795 827.439L854.294 782.539H874.464L874.462 827.44Z" fill="#9E616A"/>
<path d="M877.948 838.725L833.882 838.723V838.248C833.882 834.374 835.689 830.658 838.906 827.918C842.122 825.178 846.485 823.639 851.033 823.639H851.035L877.948 823.64L877.948 838.725Z" fill="#444444"/>
<path d="M284.036 836.988V476.346C284.036 474.125 285.666 471.994 288.568 470.424C291.47 468.853 295.406 467.971 299.51 467.971H368.562C372.666 467.971 376.602 468.853 379.504 470.424C382.406 471.994 384.036 474.125 384.036 476.346V476.346V837.928L284.036 836.988Z" fill="url(#paint0_linear)"/>
<path d="M428.95 838.118V551.359C428.95 549.138 430.58 547.008 433.482 545.437C436.384 543.866 440.32 542.984 444.424 542.984H513.476C517.58 542.984 521.516 543.866 524.418 545.437C527.32 547.008 528.95 549.138 528.95 551.359V551.359V837.501L428.95 838.118Z" fill="url(#paint1_linear)"/>
<path d="M884.313 438.112C901.551 438.112 915.525 426.208 915.525 411.525C915.525 396.841 901.551 384.938 884.313 384.938C867.075 384.938 853.101 396.841 853.101 411.525C853.101 426.208 867.075 438.112 884.313 438.112Z" fill="#DE6980"/>
<path d="M873.278 618.638C884.961 619.837 914.834 610.759 916.453 624.569C931.829 663.125 931.373 810.921 931.373 810.921L907.964 811.871C907.964 811.871 889.258 694.438 880.413 669.315C875.974 699.851 876.752 816.618 876.752 816.618L855.572 817.568C855.572 817.568 836.574 718.135 836.465 688.951C834.156 667.573 839.819 635.895 837.396 615.229C848.979 618.356 861.171 619.514 873.279 618.638L873.278 618.638Z" fill="#444444"/>
<path d="M718.778 836.84V421.178C718.778 415.847 725.706 411.525 734.252 411.525H803.305C811.85 411.525 818.778 415.846 818.778 421.178V837.928L718.778 836.84Z" fill="url(#paint2_linear)"/>
<path d="M833.539 506.783C828.854 498.624 823.13 490.928 816.472 483.833C815.081 482.447 813.814 480.974 812.682 479.427C810.286 475.885 809.572 471.726 808.056 467.852C803.82 456.989 793.253 448.263 790.678 437.03C789.741 432.947 781.832 444.814 783.911 449.877C787.623 459.04 788.103 468.745 792.829 477.594C797.556 486.444 803.107 494.933 807.187 503.982C809.505 509.119 811.356 514.427 814.756 519.174C818.156 523.922 823.462 527.901 829.871 528.613C829.828 525.171 830.442 521.746 831.689 518.472C833.082 514.731 835.557 510.325 833.539 506.783Z" fill="#9E616A"/>
<path d="M903.665 512.936C903.379 506.222 904.609 499.523 907.288 493.205C908.314 490.783 909.518 488.324 909.417 485.751C909.272 483.358 907.935 481.165 906.72 479C902.528 471.546 899.585 463.646 896.687 455.765L891.113 440.904C889.296 439.769 899.909 439.376 902.172 442.044C909.573 450.798 915.18 460.854 921.044 470.416C922.539 472.694 923.814 475.073 924.856 477.528C926.288 481.506 926.966 485.654 926.863 489.815C926.863 497.591 925.659 505.34 924.41 513.05C923.619 517.883 922.582 523.143 918.29 526.343C913.831 521.482 909.35 516.734 903.665 512.936Z" fill="#9E616A"/>
<path d="M874.192 505.243C886.967 505.243 897.322 496.422 897.322 485.54C897.322 474.658 886.967 465.837 874.192 465.837C861.417 465.837 851.062 474.658 851.062 485.54C851.062 496.422 861.417 505.243 874.192 505.243Z" fill="#9E616A"/>
<path d="M855.389 465.883C855.129 465.285 855.071 464.637 855.221 464.012C855.37 463.387 855.722 462.811 856.236 462.347C856.814 461.96 857.58 461.815 858.2 461.445C859.08 460.815 859.8 460.038 860.317 459.163C861.897 457.28 864.209 455.934 866.844 455.364C869.478 454.795 872.264 455.038 874.707 456.052C878.53 457.756 880.838 461.169 884.237 463.466C885.963 464.657 887.965 465.54 889.701 466.731C893.179 469.29 895.651 472.696 896.785 476.49C897.912 480.258 898.57 484.117 898.749 488.003C898.929 489.169 898.876 490.352 898.59 491.503C898.238 492.468 897.714 493.381 897.034 494.209C893.54 498.719 888.934 502.814 883.163 505.141C877.392 507.468 870.372 507.847 864.68 505.412C864.107 505.214 863.614 504.879 863.262 504.446C862.938 503.788 862.861 503.06 863.04 502.363C863.349 499.607 862.708 496.833 861.197 494.381C860.138 492.577 858.55 491.026 857.703 489.159C856.915 487.069 856.578 484.875 856.707 482.683C856.607 477.004 857.06 471.349 855.389 465.883Z" fill="#2D293D"/>
<path d="M139.121 837.405V636.729C139.121 634.156 146.049 632.069 154.595 632.069H223.647C232.193 632.069 239.121 634.158 239.121 636.729V837.928L139.121 837.405Z" fill="url(#paint3_linear)"/>
<path d="M998.391 840.018H85.2456C84.9499 840.018 84.6664 839.918 84.4574 839.74C84.2483 839.562 84.1309 839.32 84.1309 839.068C84.1309 838.817 84.2483 838.575 84.4574 838.397C84.6664 838.219 84.9499 838.119 85.2456 838.119H998.39C998.686 838.119 998.969 838.219 999.178 838.397C999.387 838.575 999.505 838.817 999.505 839.068C999.505 839.32 999.387 839.562 999.178 839.74C998.969 839.918 998.686 840.018 998.39 840.018H998.391Z" fill="#331CF2"/>
<path d="M573.863 836.698V364.999C573.863 358.949 580.791 354.045 589.337 354.045H658.39C666.935 354.045 673.863 358.949 673.863 364.999V837.928L573.863 836.698Z" fill="url(#paint4_linear)"/>
<path d="M783.265 447.446C788.806 447.446 793.297 443.62 793.297 438.9C793.297 434.181 788.806 430.355 783.265 430.355C777.724 430.355 773.232 434.181 773.232 438.9C773.232 443.62 777.724 447.446 783.265 447.446Z" fill="#A0616A"/>
<path d="M894.737 443.648C900.277 443.648 904.769 439.822 904.769 435.102C904.769 430.383 900.277 426.557 894.737 426.557C889.196 426.557 884.704 430.383 884.704 435.102C884.704 439.822 889.196 443.648 894.737 443.648Z" fill="#A0616A"/>
<path d="M919.116 540.89C920.095 540.127 928.076 500.37 928.029 499.474C927.906 494.576 910.361 488.982 906.85 490.928C903.537 492.765 897.768 513.835 894.056 517.672L890.129 511.818H858.916L857.025 514.811C852.929 512.709 849.245 510.771 847.931 510.13C847.479 509.87 846.988 509.663 846.47 509.518C843.225 508.9 840.181 507.681 837.552 505.948C834.988 504.267 823.089 486.665 819.901 487.13C816.301 487.643 804.156 496.588 804.295 505.171C805.824 505.144 825.713 539.02 825.992 540.283C827.519 545.619 832.562 623.443 834.19 627.07C841.687 626.453 835.768 625.351 843.025 627.07C850.839 628.922 859.088 626.918 867.148 626.177C870.503 625.894 873.875 625.767 877.247 625.798C889.509 625.845 907.01 626.424 918.882 629.016C918.949 622.389 912.116 608.051 909.585 601.793C909.254 599.923 909.265 598.02 909.618 596.153C909.942 593.865 916.469 543.421 919.116 540.89Z" fill="#E6E6E6"/>
<defs>
<linearGradient id="paint0_linear" x1="334.036" y1="467.971" x2="334.036" y2="837.928" gradientUnits="userSpaceOnUse">
<stop stop-color="#DE6980"/>
<stop offset="1" stop-color="#DE6980" stop-opacity="0"/>
</linearGradient>
<linearGradient id="paint1_linear" x1="478.95" y1="542.984" x2="478.95" y2="838.118" gradientUnits="userSpaceOnUse">
<stop stop-color="#DE6980"/>
<stop offset="1" stop-color="#DE6980" stop-opacity="0"/>
</linearGradient>
<linearGradient id="paint2_linear" x1="768.778" y1="411.525" x2="768.778" y2="837.928" gradientUnits="userSpaceOnUse">
<stop stop-color="#DE6980"/>
<stop offset="1" stop-color="#DE6980" stop-opacity="0"/>
</linearGradient>
<linearGradient id="paint3_linear" x1="189.121" y1="632.069" x2="189.121" y2="837.928" gradientUnits="userSpaceOnUse">
<stop stop-color="#DE6980"/>
<stop offset="1" stop-color="#DE6980" stop-opacity="0"/>
</linearGradient>
<linearGradient id="paint4_linear" x1="623.863" y1="354.045" x2="623.863" y2="837.928" gradientUnits="userSpaceOnUse">
<stop stop-color="#DE6980"/>
<stop offset="1" stop-color="#DE6980" stop-opacity="0"/>
</linearGradient>
</defs>
</svg>
